<svg id="Group_3262" data-name="Group 3262" xmlns="http://www.w3.org/2000/svg" xmlns:xlink="http://www.w3.org/1999/xlink" width="23.723" height="26.185" viewBox="0 0 23.723 26.185">
  <defs>
    <clipPath id="clip-path">
      <rect id="Rectangle_1014" data-name="Rectangle 1014" width="23.723" height="26.185" fill="#242b21"/>
    </clipPath>
  </defs>
  <g id="Group_2236" data-name="Group 2236" clip-path="url(#clip-path)">
    <path id="Path_927" data-name="Path 927" d="M110.37,137.7l.323-4.754c.06-.879-1.309-.875-1.368,0q-.161,2.377-.323,4.754c-.06.879,1.309.875,1.368,0" transform="translate(-92.428 -112.177)" fill="#242b21"/>
    <path id="Path_928" data-name="Path 928" d="M36.082,132.947q.161,2.377.323,4.754c.059.874,1.428.88,1.368,0q-.161-2.377-.323-4.754c-.059-.874-1.428-.88-1.368,0" transform="translate(-30.595 -112.176)" fill="#242b21"/>
    <path id="Path_929" data-name="Path 929" d="M23.715,100.461c0-2.161.019-4.322,0-6.483a4.508,4.508,0,0,0-2.582-4.132,6.862,6.862,0,0,0-1.923-.431c-.636-.1-1.269-.232-1.9-.348A37.762,37.762,0,0,0,13,88.4a22.263,22.263,0,0,0-5.5.469c-1.144.21-2.31.48-3.458.588A4.46,4.46,0,0,0,.073,93.355a31.727,31.727,0,0,0-.036,3.652v3.455a.685.685,0,0,0,1.368,0V94.287a3.235,3.235,0,0,1,2.022-3.3A10.237,10.237,0,0,1,5.072,90.7l1.809-.331a32.805,32.805,0,0,1,4.007-.609,20.886,20.886,0,0,1,5,.428c1.064.195,2.13.436,3.2.586a3.68,3.68,0,0,1,2.362.925,3.127,3.127,0,0,1,.9,2.194c.049,2.186,0,4.378,0,6.564a.685.685,0,0,0,1.368,0" transform="translate(0 -74.937)" fill="#242b21"/>
    <path id="Path_930" data-name="Path 930" d="M49.439,5.978A4.613,4.613,0,0,1,41.3,8.948a4.614,4.614,0,1,1,8.144-2.97.685.685,0,0,0,1.368,0A5.98,5.98,0,1,0,39.7,9.054,5.982,5.982,0,0,0,50.807,5.978a.685.685,0,0,0-1.368,0" transform="translate(-32.95 0)" fill="#242b21"/>
  </g>
</svg>
