<svg xmlns="http://www.w3.org/2000/svg" xmlns:xlink="http://www.w3.org/1999/xlink" width="15.521" height="19.89" viewBox="0 0 15.521 19.89">
  <defs>
    <clipPath id="clip-path">
      <rect id="Rectangle_2223" data-name="Rectangle 2223" width="15.521" height="19.89" fill="#44513e" stroke="#fff" stroke-width="1"/>
    </clipPath>
  </defs>
  <g id="Group_4457" data-name="Group 4457" clip-path="url(#clip-path)">
    <path id="Path_931" data-name="Path 931" d="M13.44,107.211H2.08A2.083,2.083,0,0,1,0,105.13v-2.253L2.648,96.7a.333.333,0,0,1,.612.262L.666,103.014v2.116a1.416,1.416,0,0,0,1.415,1.415H13.44a1.417,1.417,0,0,0,1.415-1.415v-2.116L12.261,96.96a.333.333,0,0,1,.612-.262l2.648,6.18v2.253A2.083,2.083,0,0,1,13.44,107.211Z" transform="translate(0 -87.321)" fill="#44513e"/>
    <path id="Path_932" data-name="Path 932" d="M12.772,9.841h-.206a.336.336,0,0,1-.262-.553l2.551-5.1V2.08A1.416,1.416,0,0,0,13.44.666H2.08A1.416,1.416,0,0,0,.666,2.08V4.186L3.227,9.31a.33.33,0,0,1-.256.531H2.766l-.109-.184L0,4.344V2.08A2.083,2.083,0,0,1,2.08,0H13.44a2.083,2.083,0,0,1,2.081,2.08V4.344Z" transform="translate(0 0)" fill="#44513e"/>
    <path id="Line_4" data-name="Line 4" d="M8.193-2.834H-3.167A.333.333,0,0,1-3.5-3.167.333.333,0,0,1-3.167-3.5H8.193a.333.333,0,0,1,.333.333A.333.333,0,0,1,8.193-2.834Z" transform="translate(5.248 21.413)" fill="#44513e"/>
    <path id="Line_5" data-name="Line 5" d="M8.193-2.834H-3.167A.333.333,0,0,1-3.5-3.167.333.333,0,0,1-3.167-3.5H8.193a.333.333,0,0,1,.333.333A.333.333,0,0,1,8.193-2.834Z" transform="translate(5.248 4.905)" fill="#44513e"/>
    <path id="Ellipse_11" data-name="Ellipse 11" d="M2-3A5,5,0,1,1-3,2,5,5,0,0,1,2-3ZM2,6.423A4.426,4.426,0,1,0-2.43,2,4.431,4.431,0,0,0,2,6.423Z" transform="translate(5.764 7.913)" fill="#44513e"/>
    <path id="Path_933" data-name="Path 933" d="M52.388,33.591l-.807-2.957a.167.167,0,0,0-.156-.072H47.717a.167.167,0,0,0-.156.072l-.807,2.957-.55-.15.807-2.957a.713.713,0,0,1,.706-.492h3.708a.713.713,0,0,1,.706.492l.807,2.957Z" transform="translate(-41.811 -27.14)" fill="#44513e"/>
    <path id="Line_6" data-name="Line 6" d="M-.948-.663a.284.284,0,0,1-.2-.084L-2.916-2.513a.285.285,0,0,1,0-.4.285.285,0,0,1,.4,0L-.746-1.15a.285.285,0,0,1,0,.4A.284.284,0,0,1-.948-.663Z" transform="translate(9.297 11.447)" fill="#44513e"/>
    <path id="Line_7" data-name="Line 7" d="M-2.715-.074a.284.284,0,0,1-.2-.084.285.285,0,0,1,0-.4L-.561-2.916a.285.285,0,0,1,.4,0,.285.285,0,0,1,0,.4L-2.513-.157A.284.284,0,0,1-2.715-.074Z" transform="translate(9.886 10.858)" fill="#44513e"/>
    <path id="Path_934" data-name="Path 934" d="M51.425,144.936H47.717a.713.713,0,0,1-.706-.492l-.807-2.957.55-.15.807,2.957a.167.167,0,0,0,.156.072h3.708a.167.167,0,0,0,.156-.072l.807-2.957.55.15-.807,2.957A.713.713,0,0,1,51.425,144.936Z" transform="translate(-41.811 -127.898)" fill="#44513e"/>
  </g>
</svg>
