<svg xmlns="http://www.w3.org/2000/svg" xmlns:xlink="http://www.w3.org/1999/xlink" width="20.377" height="26.114" viewBox="0 0 20.377 26.114">
  <defs>
    <clipPath id="clip-path">
      <rect id="Rectangle_1045" data-name="Rectangle 1045" width="20.377" height="26.114" fill="#242b21" stroke="#242b21" stroke-width="1"/>
    </clipPath>
  </defs>
  <g id="Group_3263" data-name="Group 3263" clip-path="url(#clip-path)">
    <path id="Path_931" data-name="Path 931" d="M17.646,110.564H2.731A2.735,2.735,0,0,1,0,107.832v-2.958l3.477-8.113a.437.437,0,1,1,.8.344L.874,105.054v2.778a1.86,1.86,0,0,0,1.858,1.858H17.646a1.86,1.86,0,0,0,1.858-1.858v-2.778L16.1,97.105a.437.437,0,1,1,.8-.344l3.477,8.113v2.958A2.735,2.735,0,0,1,17.646,110.564Z" transform="translate(0 -84.45)" fill="#242b21"/>
    <path id="Path_932" data-name="Path 932" d="M16.769,12.92H16.5a.441.441,0,0,1-.344-.726L19.5,5.5V2.731A1.86,1.86,0,0,0,17.646.874H2.731A1.86,1.86,0,0,0,.874,2.731V5.5l3.363,6.727a.433.433,0,0,1-.336.7h-.27l-.143-.242L0,5.7V2.731A2.735,2.735,0,0,1,2.731,0H17.646a2.735,2.735,0,0,1,2.732,2.731V5.7Z" transform="translate(0 0)" fill="#242b21"/>
    <path id="Line_4" data-name="Line 4" d="M11.851-2.626H-3.063A.437.437,0,0,1-3.5-3.063.437.437,0,0,1-3.063-3.5H11.851a.437.437,0,0,1,.437.437A.437.437,0,0,1,11.851-2.626Z" transform="translate(5.795 27.018)" fill="#242b21"/>
    <path id="Line_5" data-name="Line 5" d="M11.851-2.626H-3.063A.437.437,0,0,1-3.5-3.063.437.437,0,0,1-3.063-3.5H11.851a.437.437,0,0,1,.437.437A.437.437,0,0,1,11.851-2.626Z" transform="translate(5.795 5.344)" fill="#242b21"/>
    <path id="Ellipse_11" data-name="Ellipse 11" d="M3.56-3A6.56,6.56,0,1,1-3,3.56,6.568,6.568,0,0,1,3.56-3Zm0,12.372A5.811,5.811,0,1,0-2.251,3.56,5.818,5.818,0,0,0,3.56,9.372Z" transform="translate(6.628 9.45)" fill="#242b21"/>
    <path id="Path_933" data-name="Path 933" d="M54.323,34.718l-1.059-3.883a.219.219,0,0,0-.2-.094H48.19a.22.22,0,0,0-.2.094l-1.059,3.883-.723-.2,1.059-3.883a.936.936,0,0,1,.927-.646h4.869a.936.936,0,0,1,.927.646l1.059,3.883Z" transform="translate(-40.436 -26.248)" fill="#242b21"/>
    <path id="Line_6" data-name="Line 6" d="M-.306.069a.373.373,0,0,1-.265-.11l-2.32-2.32a.375.375,0,0,1,0-.53.375.375,0,0,1,.53,0l2.32,2.32a.375.375,0,0,1,0,.53A.373.373,0,0,1-.306.069Z" transform="translate(11.268 14.09)" fill="#242b21"/>
    <path id="Line_7" data-name="Line 7" d="M-2.625.842A.373.373,0,0,1-2.89.732a.375.375,0,0,1,0-.53L.2-2.89a.375.375,0,0,1,.53,0,.375.375,0,0,1,0,.53L-2.361.732A.373.373,0,0,1-2.625.842Z" transform="translate(12.041 13.317)" fill="#242b21"/>
    <path id="Path_934" data-name="Path 934" d="M53.059,146.062H48.19a.936.936,0,0,1-.927-.646L46.2,141.534l.723-.2,1.059,3.883a.22.22,0,0,0,.2.094h4.869a.22.22,0,0,0,.2-.094l1.059-3.883.723.2-1.059,3.883A.936.936,0,0,1,53.059,146.062Z" transform="translate(-40.436 -123.693)" fill="#242b21"/>
  </g>
</svg>
