<svg xmlns="http://www.w3.org/2000/svg" width="56.89" height="54.577" viewBox="0 0 56.89 54.577">
  <path id="Path_4035" data-name="Path 4035" d="M56.264,27.126c.408-1.04-.29-3.4-2.413-4.257.408-.8.225-2.7-1.115-2.938.547-.29.579-2.188-.086-2.6.633-2.123-2.241-5.469-5.351-6.563-.515-3.217-3.914-6.156-9.03-5.812-.461-1.212-3.046-2.413-4.022-2.134-.922-.8-4.89-1.04-5.812.225-.922-1.265-4.89-1.04-5.812-.225-.976-.29-3.571.922-4.032,2.134-5.115-.343-8.515,2.584-9.03,5.812C6.45,11.865,3.576,15.2,4.209,17.335c-.665.408-.633,2.306-.086,2.6-1.351.225-1.523,2.123-1.115,2.938C.885,23.726.188,26.085.6,27.126c-.922.976-.622,3.4-.107,3.914A3.23,3.23,0,0,0,3.93,34.665a1.861,1.861,0,0,0,2.7.633c0,2.874,5.469,4.622,8.172,3.711a2.011,2.011,0,0,0,3.11,0c1.555.225,9.952,2.338,10.531,3.657.579-1.319,8.976-3.432,10.531-3.657a2.011,2.011,0,0,0,3.11,0c2.7.922,8.172-.826,8.172-3.711a1.861,1.861,0,0,0,2.7-.633A3.234,3.234,0,0,0,56.4,31.04a3.828,3.828,0,0,0-.107-3.914Z" transform="translate(0 -2.158)" fill="#242b21"/>
  <path id="Path_4036" data-name="Path 4036" d="M28.026,56.312c2.027,0,3.3-.611,3.3-1.727,0-2.048-1.2-4.279-1.2-7.153,0-2.252,1.341-3.442,2.906-5.019L47.4,27.957a2.318,2.318,0,1,0-1.169-1.233L34.878,36.9a1.009,1.009,0,0,1-.7.268,1.048,1.048,0,0,1-1.04-1.04.889.889,0,0,1,.086-.386l6.885-18.134a2.312,2.312,0,1,0-2.091-3.2,2.3,2.3,0,0,0,.536,2.542L31.425,32.9a1.054,1.054,0,0,1-.933.59,1.034,1.034,0,0,1-1.04-1.04l-.579-19.99a2.316,2.316,0,1,0-1.694,0L26.6,32.451a1.037,1.037,0,0,1-1.973.45L17.495,16.955a2.3,2.3,0,0,0,.536-2.542,2.315,2.315,0,1,0-2.1,3.2l6.885,18.134a.964.964,0,0,1,.086.386,1.041,1.041,0,0,1-1.04,1.04,1.009,1.009,0,0,1-.7-.268L9.806,26.724a2.3,2.3,0,1,0-1.158,1.233l14.37,14.456c1.566,1.566,2.906,2.767,2.906,5.019,0,2.885-1.2,5.1-1.2,7.153,0,1.115,1.276,1.727,3.3,1.727" transform="translate(0.387 -1.734)" fill="#cdab73"/>
</svg>
