<svg id="Group_2286" data-name="Group 2286" xmlns="http://www.w3.org/2000/svg" width="19.33" height="19.33" viewBox="0 0 19.33 19.33">
  <path id="XMLID_17_" d="M13.571,0H5.758A5.765,5.765,0,0,0,0,5.758v7.813A5.765,5.765,0,0,0,5.758,19.33h7.813a5.765,5.765,0,0,0,5.758-5.758V5.758A5.765,5.765,0,0,0,13.571,0Zm3.814,13.571a3.814,3.814,0,0,1-3.814,3.814H5.758a3.814,3.814,0,0,1-3.814-3.814V5.758A3.814,3.814,0,0,1,5.758,1.945h7.813a3.814,3.814,0,0,1,3.814,3.814v7.813Z" fill="#fff"/>
  <path id="XMLID_81_" d="M138,133a5,5,0,1,0,5,5A5.005,5.005,0,0,0,138,133Zm0,8.054A3.055,3.055,0,1,1,141.054,138,3.055,3.055,0,0,1,138,141.054Z" transform="translate(-128.334 -128.335)" fill="#fff"/>
  <circle id="XMLID_83_" cx="1.198" cy="1.198" r="1.198" transform="translate(13.476 3.505)" fill="#fff"/>
</svg>
