<svg id="klarna-pay-now-2516bae6e2a318cb44e4d29b920d93544d06e2a4b5ebcb985ab39202a68885c4" xmlns="http://www.w3.org/2000/svg" width="50.435" height="31.854" viewBox="0 0 50.435 31.854">
  <path id="Path_3992" data-name="Path 3992" d="M46.454,0H3.982A3.911,3.911,0,0,0,0,3.982v23.89a3.993,3.993,0,0,0,3.982,3.982H46.454a3.911,3.911,0,0,0,3.982-3.982V3.982A3.993,3.993,0,0,0,46.454,0Z" fill="#ffb3c7" fill-rule="evenodd"/>
  <path id="Path_3993" data-name="Path 3993" d="M46.126,1a2.662,2.662,0,0,1,2.654,2.654v23.89A2.662,2.662,0,0,1,46.126,30.2H3.654A2.662,2.662,0,0,1,1,27.545V3.654A2.662,2.662,0,0,1,3.654,1H46.126" transform="translate(0.327 0.327)" fill="#ffb3c7" fill-rule="evenodd"/>
  <path id="Path_3994" data-name="Path 3994" d="M43.973,14.88a1.185,1.185,0,1,0,1.172,1.184,1.178,1.178,0,0,0-1.172-1.184Zm-3.853-.916a1.692,1.692,0,1,0-1.691,1.622,1.657,1.657,0,0,0,1.691-1.622Zm.007-3.154h1.866v6.3H40.126v-.4a3.246,3.246,0,0,1-1.85.577,3.327,3.327,0,0,1,0-6.653,3.24,3.24,0,0,1,1.85.577v-.4Zm-14.936.822v-.822H23.28v6.3h1.915V14.173c0-.994,1.064-1.526,1.8-1.526h.021V10.812A2.319,2.319,0,0,0,25.191,11.633Zm-4.76,2.331a1.692,1.692,0,1,0-1.691,1.623A1.657,1.657,0,0,0,20.431,13.963Zm.007-3.152H22.3v6.3H20.438v-.4a3.246,3.246,0,0,1-1.852.577,3.327,3.327,0,0,1,0-6.653,3.236,3.236,0,0,1,1.85.577v-.4Zm11.233-.17a2.258,2.258,0,0,0-1.922.88v-.71H27.89v6.3h1.881V13.8a1.322,1.322,0,0,1,1.4-1.428c.82,0,1.291.5,1.291,1.415v3.327h1.865v-4.01A2.481,2.481,0,0,0,31.67,10.641Zm-19.09,6.477h1.954V8H12.581v9.116ZM4,17.118H6.068V8H4ZM11.234,8a7.3,7.3,0,0,1-2.114,5.176l2.859,3.942H9.423L6.316,12.834l.8-.608A5.256,5.256,0,0,0,9.211,8Z" transform="translate(1.309 2.618)" fill="#0a0b09"/>
</svg>
