<svg id="Group_4456" data-name="Group 4456" xmlns="http://www.w3.org/2000/svg" xmlns:xlink="http://www.w3.org/1999/xlink" width="18.069" height="19.944" viewBox="0 0 18.069 19.944">
  <defs>
    <clipPath id="clip-path">
      <rect id="Rectangle_1014" data-name="Rectangle 1014" width="18.069" height="19.944" fill="#44513e"/>
    </clipPath>
  </defs>
  <g id="Group_2236" data-name="Group 2236" clip-path="url(#clip-path)">
    <path id="Path_927" data-name="Path 927" d="M110.043,136.411l.246-3.621c.046-.669-1-.667-1.042,0q-.123,1.81-.246,3.621c-.046.669,1,.667,1.042,0" transform="translate(-96.378 -116.97)" fill="#44513e"/>
    <path id="Path_928" data-name="Path 928" d="M36.082,132.79q.123,1.81.246,3.621c.045.666,1.088.671,1.042,0q-.123-1.81-.246-3.621c-.045-.666-1.088-.671-1.042,0" transform="translate(-31.902 -116.97)" fill="#44513e"/>
    <path id="Path_929" data-name="Path 929" d="M18.062,97.58c0-1.646.015-3.292,0-4.938A3.434,3.434,0,0,0,16.1,89.495a5.227,5.227,0,0,0-1.465-.329c-.485-.075-.966-.177-1.449-.265a28.761,28.761,0,0,0-3.278-.5,16.957,16.957,0,0,0-4.19.357c-.872.16-1.76.366-2.634.448A3.4,3.4,0,0,0,.056,92.167a24.165,24.165,0,0,0-.027,2.781V97.58a.521.521,0,0,0,1.042,0v-4.7a2.464,2.464,0,0,1,1.54-2.515,7.8,7.8,0,0,1,1.252-.214L5.241,89.9a24.988,24.988,0,0,1,3.052-.464,15.909,15.909,0,0,1,3.805.326c.81.148,1.623.332,2.439.446a2.8,2.8,0,0,1,1.8.7,2.382,2.382,0,0,1,.684,1.671c.037,1.665,0,3.334,0,5a.521.521,0,0,0,1.042,0" transform="translate(0 -78.139)" fill="#44513e"/>
    <path id="Path_930" data-name="Path 930" d="M46.917,4.553a3.513,3.513,0,0,1-6.2,2.262,3.514,3.514,0,1,1,6.2-2.262.521.521,0,0,0,1.042,0A4.555,4.555,0,1,0,39.5,6.9a4.557,4.557,0,0,0,8.463-2.343.521.521,0,0,0-1.042,0" transform="translate(-34.358 0)" fill="#44513e"/>
  </g>
</svg>
