<svg xmlns="http://www.w3.org/2000/svg" xmlns:xlink="http://www.w3.org/1999/xlink" width="174" height="33.856" viewBox="0 0 174 33.856">
  <defs>
    <clipPath id="clip-path">
      <rect id="Rectangle_1043" data-name="Rectangle 1043" width="174" height="33.856" fill="none"/>
    </clipPath>
  </defs>
  <g id="Group_4454" data-name="Group 4454" transform="translate(0 0)">
    <g id="Group_3258" data-name="Group 3258" transform="translate(0 0)" clip-path="url(#clip-path)">
      <path id="Path_4014" data-name="Path 4014" d="M67.309,17.052a8.4,8.4,0,0,1-3.143-3.309,9.6,9.6,0,0,1-1.111-4.561,8.334,8.334,0,0,1,1.461-4.954,9.145,9.145,0,0,1,3.745-3.1A11.162,11.162,0,0,1,72.933.09a8.755,8.755,0,0,1,4.684,1.246,8.458,8.458,0,0,1,3.1,3.3A9.21,9.21,0,0,1,81.8,8.979a8.6,8.6,0,0,1-1.344,4.684,9.64,9.64,0,0,1-3.6,3.364,10.039,10.039,0,0,1-4.893,1.234,8.76,8.76,0,0,1-4.641-1.222Zm9.245-.27a6.456,6.456,0,0,0,2.523-2.72A9.223,9.223,0,0,0,80,9.771a10.421,10.421,0,0,0-1.025-4.7,7.684,7.684,0,0,0-2.891-3.211A8.09,8.09,0,0,0,71.754.716a6.5,6.5,0,0,0-5.077,2.02,7.9,7.9,0,0,0-1.823,5.5,11.014,11.014,0,0,0,1.025,4.782,8.34,8.34,0,0,0,2.879,3.438,7.3,7.3,0,0,0,4.205,1.265,7.02,7.02,0,0,0,3.591-.927Z" transform="translate(-24.346 -0.035)" fill="#1d1d1b"/>
      <path id="Path_4015" data-name="Path 4015" d="M111.614,17.729q0,.166-.111.166c-.338,0-.878-.018-1.627-.055-.712-.037-1.234-.055-1.572-.055-.393,0-.909.018-1.541.055q-.9.055-1.344.055-.111,0-.111-.166t.111-.166a4.678,4.678,0,0,0,1.658-.209.729.729,0,0,0,.5-.712,3.006,3.006,0,0,0-.307-1.093l-2.64-5.7H97.955l-1.909,4.6a4.315,4.315,0,0,0-.393,1.572,1.249,1.249,0,0,0,.675,1.179,4.578,4.578,0,0,0,2.106.362c.092,0,.141.055.141.166s-.049.166-.141.166c-.338,0-.823-.018-1.461-.055-.712-.037-1.326-.055-1.854-.055q-.7,0-1.658.055c-.559.037-1.019.055-1.375.055-.092,0-.141-.055-.141-.166s.049-.166.141-.166a2.524,2.524,0,0,0,2.37-1.3,12.534,12.534,0,0,0,1.05-2.075L101.374.086A.207.207,0,0,1,101.559,0c.086,0,.135.031.153.086l6.507,13.972a15.79,15.79,0,0,0,1.148,2.173,3.445,3.445,0,0,0,.995,1.037,2.159,2.159,0,0,0,1.136.295q.111,0,.111.166ZM98.176,9.337h6.2L101.092,2.3Z" transform="translate(-35.5 0)" fill="#1d1d1b"/>
      <path id="Path_4016" data-name="Path 4016" d="M143.851,17.961c0,.111-.025.166-.086.166h-3.143a3.427,3.427,0,0,1-1.179-.111,6.992,6.992,0,0,1-1.025-1.289q-.829-1.179-2.007-2.664l-4.463-5.525-.982.952v6.366a3.184,3.184,0,0,0,.184,1.265.992.992,0,0,0,.688.534,6.769,6.769,0,0,0,1.627.141q.055,0,.055.166t-.055.166c-.559,0-1.013-.006-1.344-.031l-1.909-.025-1.854.025c-.338.018-.8.031-1.406.031q-.055,0-.055-.166t.055-.166a6.828,6.828,0,0,0,1.615-.141,1.047,1.047,0,0,0,.718-.546,3.037,3.037,0,0,0,.2-1.246V2.871a3.093,3.093,0,0,0-.184-1.234,1.049,1.049,0,0,0-.7-.546,6.081,6.081,0,0,0-1.615-.153q-.055,0-.055-.166t.055-.166l1.375.031c.786.037,1.4.055,1.854.055q.755,0,1.934-.055l1.32-.031q.055,0,.055.166t-.055.166a5.761,5.761,0,0,0-1.615.166,1.071,1.071,0,0,0-.7.577,3.183,3.183,0,0,0-.184,1.246V8.845L137.141,2.7c.632-.638.952-1.074.952-1.32,0-.166-.129-.282-.381-.35a5.421,5.421,0,0,0-1.246-.1q-.055,0-.055-.166T136.466.6l1.179.031c.712.037,1.375.055,2,.055q.866,0,1.823-.055L142.445.6c.055,0,.086.055.086.166s-.025.166-.086.166a7.057,7.057,0,0,0-2.37.436,6.187,6.187,0,0,0-2.284,1.5l-4.77,4.659,4.009,5.052a43.99,43.99,0,0,0,3.254,3.757A5.313,5.313,0,0,0,142,17.611a6.336,6.336,0,0,0,1.768.184C143.82,17.8,143.851,17.851,143.851,17.961Z" transform="translate(-48.994 -0.232)" fill="#1d1d1b"/>
      <path id="Path_4017" data-name="Path 4017" d="M161.758,15.749a2.878,2.878,0,0,0,.184,1.191,1.018,1.018,0,0,0,.675.522,6.27,6.27,0,0,0,1.559.141h3.591q2.781,0,3.284-3.567c0-.055.049-.08.153-.068s.153.043.153.1a34.122,34.122,0,0,0-.252,3.647.48.48,0,0,1-.086.325.426.426,0,0,1-.338.1h-12.9q-.055,0-.055-.166t.055-.166a6.828,6.828,0,0,0,1.615-.141,1,1,0,0,0,.7-.546,3.183,3.183,0,0,0,.184-1.246v-13a3.094,3.094,0,0,0-.184-1.234,1.049,1.049,0,0,0-.7-.546A6.112,6.112,0,0,0,157.78.942q-.055,0-.055-.166T157.78.61l1.375.031c.786.037,1.406.055,1.854.055q.755,0,1.934-.055l1.32-.031q.055,0,.055.166t-.055.166a6.112,6.112,0,0,0-1.615.153,1.033,1.033,0,0,0-.7.559,3.183,3.183,0,0,0-.184,1.246V15.749Z" transform="translate(-60.898 -0.236)" fill="#1d1d1b"/>
      <path id="Path_4018" data-name="Path 4018" d="M194.939,13.968c.11.006.166.043.166.1a26.161,26.161,0,0,0-.252,3.647.449.449,0,0,1-.1.325.487.487,0,0,1-.35.1H182.82q-.055,0-.055-.166t.055-.166a6.829,6.829,0,0,0,1.615-.141.988.988,0,0,0,.7-.546,3.183,3.183,0,0,0,.184-1.246v-13a3.094,3.094,0,0,0-.184-1.234,1.049,1.049,0,0,0-.7-.546A6.081,6.081,0,0,0,182.82.942q-.055,0-.055-.166T182.82.61h11.112a.224.224,0,0,1,.252.252l.055,3.395c0,.055-.049.086-.153.086s-.153-.031-.153-.086a3.274,3.274,0,0,0-.755-2.271,2.552,2.552,0,0,0-1.989-.841h-1.934a6.453,6.453,0,0,0-1.572.141.992.992,0,0,0-.688.534,3.094,3.094,0,0,0-.184,1.234v5.7h3.7a2.822,2.822,0,0,0,1.8-.436,1.891,1.891,0,0,0,.5-1.5q0-.055.166-.055t.166.055l-.025,2.216c0,.54.006.945.025,1.209l.031,1.32q0,.055-.166.055t-.166-.055a2.378,2.378,0,0,0-.534-1.768,2.722,2.722,0,0,0-1.879-.5h-3.616v6.483A2.879,2.879,0,0,0,187,16.964a1.018,1.018,0,0,0,.675.522,6.4,6.4,0,0,0,1.584.141h2.585a2.4,2.4,0,0,0,1.921-.982,5.172,5.172,0,0,0,1.025-2.585c0-.055.055-.08.166-.068Z" transform="translate(-70.566 -0.236)" fill="#1d1d1b"/>
      <path id="Path_4019" data-name="Path 4019" d="M211.1,17.124a.992.992,0,0,0,.688.534,6.77,6.77,0,0,0,1.627.141q.055,0,.055.166t-.055.166c-.559,0-1-.006-1.32-.031l-1.964-.025-1.879.025c-.338.018-.8.031-1.375.031-.055,0-.086-.055-.086-.166s.031-.166.086-.166a6.829,6.829,0,0,0,1.615-.141,1.047,1.047,0,0,0,.718-.546,3.037,3.037,0,0,0,.2-1.246V2.875a2.952,2.952,0,0,0-.2-1.234,1.086,1.086,0,0,0-.718-.546,6.081,6.081,0,0,0-1.615-.153c-.055,0-.086-.055-.086-.166s.031-.166.086-.166l1.375.031Q209.435.7,210.135.7c.522,0,1.179-.018,1.964-.055l1.32-.031q.055,0,.055.166t-.055.166a5.761,5.761,0,0,0-1.615.166,1.071,1.071,0,0,0-.7.577,3.183,3.183,0,0,0-.184,1.246V15.865a3.184,3.184,0,0,0,.184,1.265Z" transform="translate(-79.844 -0.236)" fill="#1d1d1b"/>
      <path id="Path_4020" data-name="Path 4020" d="M225.367,17.025a8.784,8.784,0,0,1-3.462-3.364A9.217,9.217,0,0,1,220.7,9.02a8.27,8.27,0,0,1,1.363-4.739,8.762,8.762,0,0,1,3.732-3.1A12.7,12.7,0,0,1,231.107.1a12.4,12.4,0,0,1,2.836.307,7.461,7.461,0,0,1,2.192.872.862.862,0,0,1,.227.209,2.172,2.172,0,0,1,.055.405l.338,3.143c0,.055-.049.092-.153.111s-.166,0-.184-.055a6.549,6.549,0,0,0-1.952-3.45A5.646,5.646,0,0,0,230.72.517a8.539,8.539,0,0,0-4.181.995,7.281,7.281,0,0,0-2.916,2.836,8.421,8.421,0,0,0-1.068,4.31,10.39,10.39,0,0,0,.97,4.432,8.293,8.293,0,0,0,2.971,3.45,8.705,8.705,0,0,0,4.954,1.344,4.271,4.271,0,0,0,2.934-.8,3.5,3.5,0,0,0,.853-2.652,7.211,7.211,0,0,0-.2-2.032,1.2,1.2,0,0,0-.841-.774,8.854,8.854,0,0,0-2.247-.2c-.111,0-.166-.074-.166-.227a.264.264,0,0,1,.043-.153c.031-.043.061-.068.1-.068,1.443.092,2.6.141,3.481.141s1.737-.031,2.7-.086a.128.128,0,0,1,.1.068.245.245,0,0,1,.043.129c0,.129-.049.2-.141.2a1.776,1.776,0,0,0-1.037.184,1.154,1.154,0,0,0-.393.853,20.236,20.236,0,0,0-.086,2.247,11.079,11.079,0,0,0,.1,1.8,4.791,4.791,0,0,1,.1.675.339.339,0,0,1-.055.227.652.652,0,0,1-.252.111,27.366,27.366,0,0,1-5.777.755,10.854,10.854,0,0,1-5.316-1.246Z" transform="translate(-85.211 -0.039)" fill="#1d1d1b"/>
      <path id="Path_4021" data-name="Path 4021" d="M271.277,17.965c0,.111-.031.166-.086.166-.583,0-1.031-.006-1.344-.031l-1.879-.025-1.934.025c-.319.018-.755.031-1.32.031-.055,0-.086-.055-.086-.166s.031-.166.086-.166a6.769,6.769,0,0,0,1.627-.141.992.992,0,0,0,.688-.534,3.185,3.185,0,0,0,.184-1.265V9.266h-11.2v6.593a3.184,3.184,0,0,0,.184,1.265.992.992,0,0,0,.688.534,6.77,6.77,0,0,0,1.627.141q.055,0,.055.166t-.055.166c-.559,0-1.013-.006-1.344-.031l-1.909-.025-1.854.025c-.338.018-.8.031-1.406.031q-.055,0-.055-.166T252,17.8a6.828,6.828,0,0,0,1.615-.141,1.036,1.036,0,0,0,.712-.546,3.037,3.037,0,0,0,.2-1.246V2.875a3.093,3.093,0,0,0-.184-1.234,1.049,1.049,0,0,0-.7-.546,6.081,6.081,0,0,0-1.615-.153q-.055,0-.055-.166t.055-.166L253.4.641c.786.037,1.4.055,1.854.055q.755,0,1.934-.055l1.32-.031q.055,0,.055.166t-.055.166a5.731,5.731,0,0,0-1.615.166,1.057,1.057,0,0,0-.7.577,3.184,3.184,0,0,0-.184,1.246V8.738h11.2V2.931a3.183,3.183,0,0,0-.184-1.246,1.1,1.1,0,0,0-.7-.577,5.732,5.732,0,0,0-1.615-.166c-.055,0-.086-.055-.086-.166s.031-.166.086-.166l1.32.031Q267.206.7,267.962.7q.7,0,1.879-.055L271.185.61c.055,0,.086.055.086.166s-.031.166-.086.166a6.112,6.112,0,0,0-1.615.153,1.1,1.1,0,0,0-.718.546,2.952,2.952,0,0,0-.2,1.234v12.99a3.037,3.037,0,0,0,.2,1.246,1.034,1.034,0,0,0,.718.546,6.793,6.793,0,0,0,1.615.141c.055,0,.086.055.086.166Z" transform="translate(-97.277 -0.236)" fill="#1d1d1b"/>
      <path id="Path_4022" data-name="Path 4022" d="M65.372,47.1a1.674,1.674,0,0,0,.1.681.544.544,0,0,0,.387.295,3.492,3.492,0,0,0,.89.08h2.057q1.593,0,1.879-2.044c0-.031.031-.043.086-.043s.086.025.086.055a18.787,18.787,0,0,0-.147,2.087.288.288,0,0,1-.049.184.251.251,0,0,1-.19.055h-7.4a.142.142,0,0,1-.031-.1c0-.068.012-.1.031-.1a3.83,3.83,0,0,0,.927-.08.574.574,0,0,0,.4-.313,1.884,1.884,0,0,0,.1-.718V39.7A1.812,1.812,0,0,0,64.4,39a.607.607,0,0,0-.4-.313,3.424,3.424,0,0,0-.927-.086c-.018,0-.031-.031-.031-.1s.012-.1.031-.1l.786.018c.448.018.8.031,1.062.031.289,0,.657-.012,1.111-.031l.755-.018a.142.142,0,0,1,.031.1c0,.068-.012.1-.031.1a3.765,3.765,0,0,0-.927.086.6.6,0,0,0-.4.319,1.869,1.869,0,0,0-.1.712v7.361Z" transform="translate(-24.342 -14.826)" fill="#1d1d1b"/>
      <path id="Path_4023" data-name="Path 4023" d="M84.922,38.989a1.347,1.347,0,0,0-1.037-.362c-.031,0-.049-.031-.049-.1s.018-.1.049-.1l.675.018c.362.018.657.031.884.031.19,0,.448-.012.774-.031l.657-.018a.142.142,0,0,1,.031.1c0,.068-.012.1-.031.1a1.193,1.193,0,0,0-.964.362,1.744,1.744,0,0,0-.307,1.136v4.6a4.043,4.043,0,0,1-1.013,2.928,3.636,3.636,0,0,1-2.732,1.044,4.367,4.367,0,0,1-2.075-.473,3.32,3.32,0,0,1-1.369-1.344,4.08,4.08,0,0,1-.479-2.007V39.744a1.812,1.812,0,0,0-.1-.706.607.607,0,0,0-.4-.313,3.454,3.454,0,0,0-.927-.086c-.025,0-.031-.031-.031-.1s.012-.1.031-.1l.774.018c.448.018.81.031,1.074.031.289,0,.657-.012,1.111-.031l.737-.018c.031,0,.049.031.049.1s-.018.1-.049.1a3.007,3.007,0,0,0-.915.1.6.6,0,0,0-.393.332,1.884,1.884,0,0,0-.1.718v4.531a4.31,4.31,0,0,0,.884,2.9,3.091,3.091,0,0,0,2.474,1.019,2.882,2.882,0,0,0,2.284-.927,3.744,3.744,0,0,0,.816-2.566v-4.61A1.651,1.651,0,0,0,84.916,39Z" transform="translate(-29.527 -14.838)" fill="#1d1d1b"/>
      <path id="Path_4024" data-name="Path 4024" d="M104.436,48.377c0,.068-.012.1-.031.1a6.527,6.527,0,0,1-.657-.018l-.853-.018-1.2.018c-.19.012-.454.018-.786.018-.025,0-.031-.031-.031-.1s.012-.1.031-.1a2.679,2.679,0,0,0,.694-.061c.141-.043.209-.117.209-.227a.657.657,0,0,0-.147-.338l-2.492-3.775L96.934,47a1.474,1.474,0,0,0-.319.755c0,.356.325.528.982.528.031,0,.049.031.049.1s-.018.1-.049.1c-.319,0-.565,0-.724-.018L95.8,48.439l-.657.018c-.117.012-.313.018-.577.018-.031,0-.049-.031-.049-.1s.018-.1.049-.1a1.945,1.945,0,0,0,1.062-.332,3.885,3.885,0,0,0,.982-.958l2.425-3.327-2.591-3.9a2.92,2.92,0,0,0-.835-.884,1.845,1.845,0,0,0-.995-.258c-.025,0-.031-.031-.031-.1s.012-.1.031-.1c.129,0,.331.012.608.031l.577.018c.344,0,.774-.012,1.289-.031l.835-.018c.031,0,.049.031.049.1s-.018.1-.049.1a2.33,2.33,0,0,0-.694.074c-.141.049-.209.129-.209.233a.75.75,0,0,0,.147.338l2.443,3.665,2.044-2.879a1.769,1.769,0,0,0,.387-.884c0-.362-.313-.546-.933-.546-.031,0-.049-.031-.049-.1s.018-.1.049-.1l.724.018c.405.018.767.031,1.074.031.184,0,.4-.012.657-.031l.577-.018c.031,0,.049.031.049.1s-.018.1-.049.1a2.86,2.86,0,0,0-2.155,1.449l-2.253,3.069,2.67,4a2.6,2.6,0,0,0,.859.89,2.322,2.322,0,0,0,1.148.252c.018,0,.031.031.031.1Z" transform="translate(-36.492 -14.834)" fill="#1d1d1b"/>
      <path id="Path_4025" data-name="Path 4025" d="M120.268,38.989a1.347,1.347,0,0,0-1.037-.362c-.031,0-.049-.031-.049-.1s.018-.1.049-.1l.675.018c.362.018.657.031.884.031.19,0,.448-.012.774-.031l.657-.018a.142.142,0,0,1,.031.1c0,.068-.012.1-.031.1a1.193,1.193,0,0,0-.964.362,1.744,1.744,0,0,0-.307,1.136v4.6a4.043,4.043,0,0,1-1.013,2.928,3.636,3.636,0,0,1-2.732,1.044,4.367,4.367,0,0,1-2.075-.473,3.32,3.32,0,0,1-1.369-1.344,4.033,4.033,0,0,1-.485-2.007V39.744a1.812,1.812,0,0,0-.1-.706.607.607,0,0,0-.4-.313,3.424,3.424,0,0,0-.927-.086c-.018,0-.031-.031-.031-.1s.012-.1.031-.1l.774.018c.448.018.81.031,1.08.031.289,0,.657-.012,1.111-.031l.737-.018c.031,0,.049.031.049.1s-.018.1-.049.1a3.007,3.007,0,0,0-.915.1.616.616,0,0,0-.393.332,1.884,1.884,0,0,0-.1.718v4.531a4.31,4.31,0,0,0,.884,2.9,3.091,3.091,0,0,0,2.474,1.019,2.882,2.882,0,0,0,2.284-.927,3.746,3.746,0,0,0,.823-2.566v-4.61A1.651,1.651,0,0,0,120.268,39Z" transform="translate(-43.172 -14.838)" fill="#1d1d1b"/>
      <path id="Path_4026" data-name="Path 4026" d="M140.731,48.35c0,.068-.018.1-.049.1h-1.866c-.27,0-.786-.448-1.553-1.344a41.588,41.588,0,0,1-2.738-3.69,5.3,5.3,0,0,1-1.013.111c-.043,0-.276-.018-.694-.049v3.665a1.9,1.9,0,0,0,.1.724.585.585,0,0,0,.393.307,3.754,3.754,0,0,0,.933.08c.031,0,.049.031.049.1s-.018.1-.049.1c-.319,0-.577,0-.774-.018l-1.093-.018-1.062.018c-.19.012-.46.018-.8.018-.025,0-.031-.031-.031-.1s.012-.1.031-.1a3.845,3.845,0,0,0,.939-.08.611.611,0,0,0,.411-.313,1.751,1.751,0,0,0,.11-.718V39.7a1.812,1.812,0,0,0-.1-.706.607.607,0,0,0-.4-.313,3.4,3.4,0,0,0-.921-.086c-.031,0-.049-.031-.049-.1s.018-.1.049-.1l.774.018c.43.018.78.031,1.062.031.233,0,.46,0,.669-.018s.387-.018.54-.031c.387-.031.731-.049,1.031-.049a2.758,2.758,0,0,1,1.872.583,1.98,1.98,0,0,1,.669,1.553,2.553,2.553,0,0,1-.516,1.553,3.477,3.477,0,0,1-1.369,1.1q1.381,1.961,2.314,3.051a8.617,8.617,0,0,0,1.658,1.578,2.6,2.6,0,0,0,1.43.485c.031,0,.049.031.049.1Zm-6.943-5.194a2.68,2.68,0,0,0,1.9-.553,2.24,2.24,0,0,0,.571-1.682,2.372,2.372,0,0,0-.6-1.8,2.461,2.461,0,0,0-1.743-.565,1.236,1.236,0,0,0-.853.227,1.338,1.338,0,0,0-.239.945v3.376A9.448,9.448,0,0,0,133.788,43.157Z" transform="translate(-50.381 -14.807)" fill="#1d1d1b"/>
      <path id="Path_4027" data-name="Path 4027" d="M155.142,38.528c0,.061-.012.1-.031.1a2.073,2.073,0,0,0-1.16.381,3.693,3.693,0,0,0-1.013,1.068l-2.265,3.438v3.665a1.921,1.921,0,0,0,.1.724.547.547,0,0,0,.387.307,3.754,3.754,0,0,0,.933.08c.031,0,.049.031.049.1s-.018.1-.049.1c-.319,0-.571,0-.755-.018l-1.093-.018-1.093.018q-.285.018-.774.018c-.031,0-.049-.031-.049-.1s.018-.1.049-.1a3.83,3.83,0,0,0,.927-.08.611.611,0,0,0,.411-.313,1.751,1.751,0,0,0,.111-.718V43.752l-2.75-3.984a3.051,3.051,0,0,0-.816-.884,1.816,1.816,0,0,0-.995-.258c-.031,0-.049-.031-.049-.1s.018-.1.049-.1l.6.018c.258.018.448.031.577.031.356,0,.786-.012,1.3-.031l.835-.018a.142.142,0,0,1,.031.1c0,.068-.012.1-.031.1a2.406,2.406,0,0,0-.7.074c-.147.049-.215.129-.215.233a.835.835,0,0,0,.16.338l2.7,3.874,2.057-3.119a2,2,0,0,0,.356-.884c0-.344-.289-.516-.872-.516-.018,0-.031-.031-.031-.1s.012-.1.031-.1l.724.018c.405.018.767.031,1.074.031.184,0,.4-.012.657-.031l.6-.018A.142.142,0,0,1,155.142,38.528Z" transform="translate(-56.068 -14.838)" fill="#1d1d1b"/>
      <path id="Path_4028" data-name="Path 4028" d="M182.446,38.524c0,.061-.018.1-.049.1a1.664,1.664,0,0,0-.909.233,1.856,1.856,0,0,0-.632.878l-3.536,8.73c-.012.043-.068.061-.178.061a.208.208,0,0,1-.178-.061l-2.106-4.61-1.866,4.61c-.012.043-.068.061-.178.061a.208.208,0,0,1-.178-.061l-3.972-8.693a2.389,2.389,0,0,0-.589-.884,1.233,1.233,0,0,0-.81-.258c-.031,0-.049-.031-.049-.1s.018-.1.049-.1l.694.018c.3.018.522.031.675.031.313,0,.681-.012,1.111-.031l.694-.018c.031,0,.049.031.049.1s-.018.1-.049.1a2,2,0,0,0-.755.111.4.4,0,0,0-.258.4,1.343,1.343,0,0,0,.129.467l3.554,7.668,1.559-3.843L173,39.764a2.389,2.389,0,0,0-.589-.884,1.233,1.233,0,0,0-.81-.258c-.031,0-.049-.031-.049-.1s.018-.1.049-.1l.694.018c.3.018.528.031.675.031.227,0,.485-.012.786-.031l.448-.018c.031,0,.049.031.049.1s-.018.1-.049.1a1.464,1.464,0,0,0-.448.049.187.187,0,0,0-.129.19,2.9,2.9,0,0,0,.258.737l1.289,2.763,1.111-2.732a1.477,1.477,0,0,0,.147-.565.362.362,0,0,0-.184-.344,1.277,1.277,0,0,0-.589-.1c-.018,0-.031-.031-.031-.1s.012-.1.031-.1l.448.018c.215.018.417.031.608.031.215,0,.46-.012.737-.031l.694-.018a.142.142,0,0,1,.031.1c0,.068-.012.1-.031.1a1.7,1.7,0,0,0-.915.233,1.773,1.773,0,0,0-.626.878l-1.24,3.057,2.075,4.488,3.1-7.637a1.1,1.1,0,0,0,.111-.467.435.435,0,0,0-.295-.417,2.7,2.7,0,0,0-.988-.129c-.031,0-.049-.031-.049-.1s.018-.1.049-.1l.645.018c.362.018.688.031.964.031.227,0,.479-.012.755-.031l.675-.018c.031,0,.049.031.049.1Z" transform="translate(-64.562 -14.834)" fill="#1d1d1b"/>
      <path id="Path_4029" data-name="Path 4029" d="M199.6,48.246c0,.068-.018.1-.061.1-.19,0-.5-.012-.933-.031-.405-.025-.706-.031-.9-.031-.227,0-.522.012-.884.031-.344.018-.6.031-.774.031-.043,0-.061-.031-.061-.1s.018-.1.061-.1a2.642,2.642,0,0,0,.945-.123.419.419,0,0,0,.289-.411,1.759,1.759,0,0,0-.178-.626l-1.51-3.266h-3.825l-1.093,2.634a2.538,2.538,0,0,0-.227.9.711.711,0,0,0,.387.675,2.608,2.608,0,0,0,1.2.209c.055,0,.08.031.08.1s-.025.1-.08.1c-.19,0-.473-.012-.835-.031-.405-.025-.761-.031-1.062-.031-.27,0-.583.012-.945.031-.319.018-.583.031-.786.031-.055,0-.08-.031-.08-.1s.025-.1.08-.1a1.446,1.446,0,0,0,1.357-.737,6.8,6.8,0,0,0,.6-1.191l3.358-8.085a.123.123,0,0,1,.1-.049c.049,0,.08.018.086.049l3.732,8.005a8.758,8.758,0,0,0,.657,1.246,1.906,1.906,0,0,0,.571.6,1.267,1.267,0,0,0,.651.166c.043,0,.061.031.061.1Zm-7.7-4.807h3.554l-1.879-4.033-1.67,4.033Z" transform="translate(-72.713 -14.703)" fill="#1d1d1b"/>
      <path id="Path_4030" data-name="Path 4030" d="M206.638,38.906a3.019,3.019,0,0,0-.626,1.719c0,.025-.031.031-.1.031s-.1-.012-.1-.031c.043-.289.092-.755.147-1.394s.08-1.117.08-1.437c0-.055.031-.08.1-.08s.1.025.1.08c0,.233.282.356.853.356.921.031,2,.049,3.229.049.632,0,1.3-.012,2.007-.031l1.093-.018a3.231,3.231,0,0,0,.853-.08.5.5,0,0,0,.356-.319c.012-.043.043-.061.1-.061s.08.025.08.061c-.031.3-.061.761-.1,1.375s-.049,1.117-.049,1.5c0,.025-.031.031-.1.031s-.1-.012-.1-.031a3.923,3.923,0,0,0-.178-1.32,1.18,1.18,0,0,0-.6-.675,2.637,2.637,0,0,0-1.173-.209,8.388,8.388,0,0,0-1.173.055.615.615,0,0,0-.46.264,1.606,1.606,0,0,0-.123.737v7.41a1.765,1.765,0,0,0,.11.724.625.625,0,0,0,.448.307,4.934,4.934,0,0,0,1.062.08c.025,0,.031.031.031.1s-.012.1-.031.1c-.356,0-.632,0-.835-.018l-1.24-.018-1.173.018q-.322.018-.884.018c-.025,0-.031-.031-.031-.1s.012-.1.031-.1a4.973,4.973,0,0,0,1.062-.08.67.67,0,0,0,.46-.313,1.54,1.54,0,0,0,.123-.718v-7.44a1.453,1.453,0,0,0-.129-.731.631.631,0,0,0-.46-.252,8.863,8.863,0,0,0-1.2-.049,1.994,1.994,0,0,0-1.479.479Z" transform="translate(-79.466 -14.552)" fill="#1d1d1b"/>
      <path id="Path_4031" data-name="Path 4031" d="M229.067,38.3a6.288,6.288,0,0,1,1.43.54.6.6,0,0,1,.123.1.666.666,0,0,1,.037.252l.19,1.836c0,.031-.031.049-.086.055s-.092-.006-.1-.043a3.685,3.685,0,0,0-1.173-2,3.323,3.323,0,0,0-2.155-.669,5,5,0,0,0-2.486.6,4.157,4.157,0,0,0-1.658,1.694,5.349,5.349,0,0,0-.589,2.566,5.253,5.253,0,0,0,2.4,4.426,4.33,4.33,0,0,0,2.357.7,3.242,3.242,0,0,0,3.407-2.621c0-.018.025-.031.08-.031.074,0,.11.018.11.049l-.129,1.707a.582.582,0,0,1-.049.239.5.5,0,0,1-.129.111,6.711,6.711,0,0,1-1.565.6,7.964,7.964,0,0,1-1.743.166,6.467,6.467,0,0,1-2.984-.669,4.974,4.974,0,0,1-2.05-1.879,5.265,5.265,0,0,1-.737-2.787,4.774,4.774,0,0,1,.737-2.67,4.906,4.906,0,0,1,2.05-1.793,6.7,6.7,0,0,1,2.965-.632,7.978,7.978,0,0,1,1.737.153Z" transform="translate(-85.547 -14.73)" fill="#1d1d1b"/>
      <path id="Path_4032" data-name="Path 4032" d="M250.252,48.381c0,.068-.018.1-.049.1-.332,0-.589,0-.773-.018l-1.08-.018-1.111.018q-.276.018-.755.018c-.031,0-.049-.031-.049-.1s.018-.1.049-.1a3.787,3.787,0,0,0,.933-.08.569.569,0,0,0,.393-.307,1.9,1.9,0,0,0,.1-.724V43.4H241.5v3.775a1.9,1.9,0,0,0,.1.724A.569.569,0,0,0,242,48.2a3.754,3.754,0,0,0,.933.08c.018,0,.031.031.031.1s-.012.1-.031.1c-.319,0-.577,0-.773-.018l-1.093-.018L240,48.461c-.19.012-.46.018-.8.018-.018,0-.031-.031-.031-.1s.012-.1.031-.1a3.83,3.83,0,0,0,.927-.08.611.611,0,0,0,.411-.313,1.751,1.751,0,0,0,.111-.718v-7.44a1.812,1.812,0,0,0-.1-.706.607.607,0,0,0-.4-.313,3.4,3.4,0,0,0-.921-.086c-.025,0-.031-.031-.031-.1s.012-.1.031-.1l.786.018c.448.018.8.031,1.062.031.289,0,.657-.012,1.111-.031l.755-.018a.142.142,0,0,1,.031.1c0,.068-.012.1-.031.1a3.154,3.154,0,0,0-.927.1.6.6,0,0,0-.4.332,1.884,1.884,0,0,0-.1.718V43.1h6.415V39.774a1.927,1.927,0,0,0-.1-.718.63.63,0,0,0-.4-.332,3.08,3.08,0,0,0-.921-.1c-.031,0-.049-.031-.049-.1s.018-.1.049-.1l.755.018c.448.018.816.031,1.111.031.27,0,.626-.012,1.08-.031l.774-.018c.031,0,.049.031.049.1s-.018.1-.049.1a3.765,3.765,0,0,0-.927.086.648.648,0,0,0-.411.313,1.685,1.685,0,0,0-.111.706v7.44a1.791,1.791,0,0,0,.111.718.581.581,0,0,0,.411.313,3.763,3.763,0,0,0,.927.08c.031,0,.049.031.049.1Z" transform="translate(-92.342 -14.838)" fill="#1d1d1b"/>
      <path id="Path_4033" data-name="Path 4033" d="M266.219,46.088c.061,0,.1.025.1.055a14.464,14.464,0,0,0-.147,2.087.254.254,0,0,1-.055.184.286.286,0,0,1-.2.055h-6.636a.142.142,0,0,1-.031-.1c0-.068.012-.1.031-.1a3.739,3.739,0,0,0,.921-.08.574.574,0,0,0,.4-.313,1.883,1.883,0,0,0,.1-.718v-7.44a1.812,1.812,0,0,0-.1-.706.607.607,0,0,0-.4-.313,3.4,3.4,0,0,0-.921-.086c-.025,0-.031-.031-.031-.1s.012-.1.031-.1h6.366a.13.13,0,0,1,.147.147l.031,1.946c0,.031-.031.049-.086.049s-.086-.018-.086-.049a1.873,1.873,0,0,0-.436-1.3,1.47,1.47,0,0,0-1.142-.485h-1.111a3.635,3.635,0,0,0-.9.08.569.569,0,0,0-.393.307,1.834,1.834,0,0,0-.1.706v3.26h2.124a1.585,1.585,0,0,0,1.031-.252,1.1,1.1,0,0,0,.289-.859c0-.025.031-.031.1-.031s.1.012.1.031l-.018,1.271a6.889,6.889,0,0,0,.018.694l.018.755a.143.143,0,0,1-.1.031c-.068,0-.1-.012-.1-.031a1.378,1.378,0,0,0-.307-1.013,1.582,1.582,0,0,0-1.08-.289h-2.075V47.1a1.675,1.675,0,0,0,.1.681.544.544,0,0,0,.387.295,3.561,3.561,0,0,0,.909.08h1.479a1.37,1.37,0,0,0,1.1-.565,2.942,2.942,0,0,0,.589-1.479c0-.031.031-.043.1-.043Z" transform="translate(-100.095 -14.834)" fill="#1d1d1b"/>
      <path id="Path_4034" data-name="Path 4034" d="M275.3,41.383a2.835,2.835,0,0,0,.749.78c.295.209.706.467,1.228.78.559.332.988.608,1.3.829a3.126,3.126,0,0,1,.786.841,2.239,2.239,0,0,1,.332,1.24,2.684,2.684,0,0,1-.368,1.375,2.608,2.608,0,0,1-1.1.982,4.037,4.037,0,0,1-1.793.362,4.316,4.316,0,0,1-1.068-.123,5.231,5.231,0,0,1-1.117-.424.224.224,0,0,1-.1-.111.8.8,0,0,1-.043-.19l-.239-2.087v-.018c0-.043.025-.068.08-.074s.086.012.1.055a3.754,3.754,0,0,0,.853,1.928,2.351,2.351,0,0,0,1.9.823,2.207,2.207,0,0,0,1.437-.467,1.753,1.753,0,0,0,.589-1.461,2.324,2.324,0,0,0-.319-1.246,3.141,3.141,0,0,0-.78-.872,13.579,13.579,0,0,0-1.246-.81,13.011,13.011,0,0,1-1.216-.786,3.027,3.027,0,0,1-.755-.841,2.5,2.5,0,0,1,.1-2.585,2.528,2.528,0,0,1,1.068-.841,3.623,3.623,0,0,1,1.412-.282,4.881,4.881,0,0,1,1.836.387c.16.068.239.153.239.276l.147,1.707c0,.043-.031.061-.086.061s-.092-.018-.1-.061a2.57,2.57,0,0,0-.626-1.5,1.985,1.985,0,0,0-1.608-.657,1.691,1.691,0,0,0-1.412.565,2.083,2.083,0,0,0-.448,1.351,2,2,0,0,0,.307,1.111Z" transform="translate(-105.736 -14.734)" fill="#1d1d1b"/>
      <path id="Path_4035" data-name="Path 4035" d="M32.208,16.451a2.2,2.2,0,0,0-1.381-2.437c.233-.46.129-1.547-.638-1.682.313-.166.332-1.252-.049-1.486.362-1.216-1.283-3.131-3.063-3.757-.295-1.842-2.241-3.524-5.169-3.327A2.7,2.7,0,0,0,19.6,2.54c-.528-.46-2.8-.6-3.327.129-.528-.724-2.8-.6-3.327-.129a2.7,2.7,0,0,0-2.308,1.222c-2.928-.2-4.874,1.479-5.169,3.327-1.78.626-3.426,2.535-3.063,3.757-.381.233-.362,1.32-.049,1.486-.774.129-.872,1.216-.638,1.682A2.2,2.2,0,0,0,.341,16.451a2.191,2.191,0,0,0-.061,2.241A1.849,1.849,0,0,0,2.25,20.766a1.065,1.065,0,0,0,1.547.362c0,1.645,3.131,2.646,4.678,2.124a1.151,1.151,0,0,0,1.78,0c.89.129,5.7,1.338,6.028,2.093.332-.755,5.138-1.964,6.028-2.093a1.151,1.151,0,0,0,1.78,0c1.547.528,4.678-.473,4.678-2.124a1.065,1.065,0,0,0,1.547-.362,1.851,1.851,0,0,0,1.971-2.075,2.191,2.191,0,0,0-.061-2.241Z" transform="translate(0 -0.833)" fill="#242b21"/>
      <path id="Path_4036" data-name="Path 4036" d="M18.332,35.656c1.16,0,1.891-.35,1.891-.988,0-1.173-.688-2.449-.688-4.095,0-1.289.767-1.971,1.664-2.873l8.226-8.275a1.327,1.327,0,1,0-.669-.706l-6.5,5.826a.578.578,0,0,1-.4.153.6.6,0,0,1-.6-.6.509.509,0,0,1,.049-.221L25.251,13.5a1.323,1.323,0,1,0-1.2-1.829,1.315,1.315,0,0,0,.307,1.455l-4.082,9.129a.6.6,0,0,1-.534.338.592.592,0,0,1-.6-.6l-.332-11.443a1.326,1.326,0,1,0-.97,0L17.516,22a.594.594,0,0,1-1.13.258L12.3,13.126a1.317,1.317,0,0,0,.307-1.455,1.325,1.325,0,1,0-1.2,1.829l3.941,10.381a.552.552,0,0,1,.049.221.6.6,0,0,1-.6.6.578.578,0,0,1-.4-.153L7.9,18.719a1.318,1.318,0,1,0-.663.706L15.466,27.7c.9.9,1.664,1.584,1.664,2.873,0,1.651-.688,2.922-.688,4.095,0,.638.731.988,1.891.988" transform="translate(-2.067 -3.089)" fill="#cdab73"/>
    </g>
  </g>
</svg>
