<svg id="Group_2228" data-name="Group 2228" xmlns="http://www.w3.org/2000/svg" xmlns:xlink="http://www.w3.org/1999/xlink" width="52.671" height="66.475" viewBox="0 0 52.671 66.475">
  <defs>
    <clipPath id="clip-path">
      <rect id="Rectangle_1009" data-name="Rectangle 1009" width="52.671" height="66.475" fill="#cdaa72"/>
    </clipPath>
  </defs>
  <g id="Group_2229" data-name="Group 2229" clip-path="url(#clip-path)">
    <path id="Path_894" data-name="Path 894" d="M26.335,0,27.1.722C34.22,7.435,43.005,11.263,48,11.574l4.667,0-.019,19.933c0,.595-.12,14.7-10.553,24.29C31.794,65.27,26.5,66.389,26.281,66.432l-.226.044-.225-.049c-.2-.043-4.962-1.165-15.258-10.631C.139,46.2.019,32.1.019,31.5L0,11.572H4.736C9.666,11.263,18.451,7.435,25.57.722Zm24.1,13.8h-2.5c-5.131-.318-13.92-3.815-21.6-10.752C18.656,9.988,9.869,13.485,4.806,13.8l-2.573,0L2.25,31.5c0,.136.136,13.736,9.832,22.65,8.484,7.8,12.973,9.669,14,10.024,1.083-.335,5.958-2.167,14.5-10.024,9.7-8.914,9.832-22.514,9.832-22.65Z" transform="translate(0 0)" fill="#cdaa72"/>
    <path id="Path_895" data-name="Path 895" d="M42.063,83.769,34.2,75.9l1.577-1.577,6.289,6.289,17.8-17.8,1.577,1.577Z" transform="translate(-21.484 -39.462)" fill="#cdaa72"/>
  </g>
</svg>
