<svg xmlns="http://www.w3.org/2000/svg" width="52.259" height="50.051" viewBox="0 0 52.259 50.051">
  <g id="Group_2244" data-name="Group 2244" transform="translate(52.259 50.051) rotate(180)">
    <g id="Group_2156" data-name="Group 2156">
      <path id="Path_741" data-name="Path 741" d="M38.5,49.772a1.949,1.949,0,0,1-1.676-.8l.6-.4a1.46,1.46,0,0,0,1.14.536,1.124,1.124,0,0,0,1.006-.469l.134-.268.268.067a7.375,7.375,0,0,0,5.7-1.073,2.611,2.611,0,0,0,1.207-1.944v-.872l.6.6a1.286,1.286,0,0,0,1.14.134,1.136,1.136,0,0,0,.67-.536l.067-.268h.335a2.5,2.5,0,0,0,2.078-.8,2.4,2.4,0,0,0,.67-2.011l-.067-.2.134-.134a3.051,3.051,0,0,0-.134-3.017l-.134-.2.067-.2a3.145,3.145,0,0,0-2.011-3.352l-.2-.2.2-.335a1.945,1.945,0,0,0-.067-1.609.891.891,0,0,0-.67-.536l-1.073-.2.939-.536a1.576,1.576,0,0,0,.2-.871c0-.469-.134-.737-.268-.8l-.268-.134.067-.268c.469-1.676-1.944-4.559-4.626-5.5l-.2-.067-.067-.2c-.4-2.682-3.218-5.229-7.776-4.961h-.268l-.067-.268c-.335-.939-2.547-1.877-3.218-1.676l-.2.067-.067-.134a5.508,5.508,0,0,0-3.151-.469,2.6,2.6,0,0,0-1.609.6l-.268.4-.335-.4c-.2-.335-.8-.536-1.609-.6a5.508,5.508,0,0,0-3.151.469l-.134.134-.134-.067a4.068,4.068,0,0,0-3.218,1.676l-.067.268H18.72c-4.559-.335-7.374,2.279-7.776,4.961l-.067.2-.2.067c-2.682.939-5.095,3.821-4.626,5.5l.067.268-.268.134a1.016,1.016,0,0,0-.268.8,1.576,1.576,0,0,0,.2.871l.939.536-1.073.2a.891.891,0,0,0-.67.536,1.944,1.944,0,0,0-.067,1.609l.2.335-.4.134A3.184,3.184,0,0,0,2.7,37.839l.067.2-.134.2A3.232,3.232,0,0,0,2.5,41.258l.134.134-.067.2a2.463,2.463,0,0,0,.67,2.011,2.318,2.318,0,0,0,2.078.8h.335l.067.268a.814.814,0,0,0,.67.536,1.25,1.25,0,0,0,1.14-.134l.6-.6v.871a2.611,2.611,0,0,0,1.207,1.944,7.1,7.1,0,0,0,5.7,1.073L15.3,48.3l.134.268a1.211,1.211,0,0,0,1.006.469,1.214,1.214,0,0,0,1.14-.536l.6.4a2.03,2.03,0,0,1-1.81.8,2.127,2.127,0,0,1-1.475-.6,8.128,8.128,0,0,1-6.1-1.274,3.4,3.4,0,0,1-1.475-1.944,2.067,2.067,0,0,1-1.274,0,1.171,1.171,0,0,1-.871-.67A3.326,3.326,0,0,1,1.893,41.66a3.986,3.986,0,0,1,.067-3.687,3.978,3.978,0,0,1,2.145-3.955,2.666,2.666,0,0,1,.2-1.877,1.815,1.815,0,0,1,.67-.737,1.84,1.84,0,0,1-.134-.8,2.135,2.135,0,0,1,.4-1.475c-.4-2.145,2.279-5.028,4.961-6.1.6-2.883,3.553-5.564,8.246-5.363a5.081,5.081,0,0,1,3.754-1.944,6.543,6.543,0,0,1,3.553-.536,3.64,3.64,0,0,1,1.81.6,3.434,3.434,0,0,1,1.81-.6,6.543,6.543,0,0,1,3.553.536,4.672,4.672,0,0,1,3.754,1.944c4.693-.2,7.709,2.48,8.313,5.363,2.682,1.006,5.3,3.888,4.961,6.1a2.135,2.135,0,0,1,.4,1.475,1.84,1.84,0,0,1-.134.8,1.453,1.453,0,0,1,.67.737,2.667,2.667,0,0,1,.2,1.877,3.978,3.978,0,0,1,2.145,3.955,3.986,3.986,0,0,1,.067,3.687,3.087,3.087,0,0,1-.871,2.48,3.216,3.216,0,0,1-2.413,1.073,2.273,2.273,0,0,1-1.073.8,2.055,2.055,0,0,1-1.274,0,3.618,3.618,0,0,1-1.475,1.944,8.128,8.128,0,0,1-6.1,1.274,2.127,2.127,0,0,1-1.475.6C38.63,49.772,38.563,49.772,38.5,49.772Z" transform="translate(-1.473 -15.139)" fill="#cdc1b6"/>
    </g>
    <g id="Group_2158" data-name="Group 2158" transform="translate(5.289 5.672)">
      <g id="Group_2157" data-name="Group 2157">
        <path id="Path_742" data-name="Path 742" d="M30.236,67.979c-2.078,0-3.352-.737-3.352-1.944a13.887,13.887,0,0,1,.469-2.749,15.7,15.7,0,0,0,.6-3.687c0-1.743-1.006-2.749-2.279-4.022l-.268-.268-12.8-12.938a2.568,2.568,0,0,1-2.48-.536,2.465,2.465,0,1,1,3.419-3.553,2.475,2.475,0,0,1,.67,2.48l10.123,9.05a.562.562,0,0,0,.939-.4.246.246,0,0,0-.067-.2L19.041,32.985a2.492,2.492,0,0,1-2.078-1.542,2.29,2.29,0,0,1,0-1.877A2.617,2.617,0,0,1,18.3,28.226a2.439,2.439,0,0,1,3.218,1.341,2.517,2.517,0,0,1-.4,2.547l6.369,14.212a.531.531,0,0,0,.536.335.6.6,0,0,0,.6-.6l.536-17.832a2.459,2.459,0,1,1,3.62-2.145,2.388,2.388,0,0,1-1.341,2.145l.4,17.765a.6.6,0,0,0,.6.6.684.684,0,0,0,.536-.335l6.3-14.212a2.493,2.493,0,0,1-.4-2.547,2.617,2.617,0,0,1,1.341-1.341,2.29,2.29,0,0,1,1.877,0A2.617,2.617,0,0,1,43.443,29.5a2.29,2.29,0,0,1,0,1.877,2.523,2.523,0,0,1-2.078,1.542l-6.1,16.223a.246.246,0,0,0-.067.2.6.6,0,0,0,.6.6.953.953,0,0,0,.4-.134l10.123-9.05a2.475,2.475,0,0,1,.67-2.48,2.465,2.465,0,1,1,3.419,3.553,2.286,2.286,0,0,1-2.48.536L34.728,55.577c-1.274,1.274-2.279,2.279-2.279,4.022a15.7,15.7,0,0,0,.6,3.687,10.28,10.28,0,0,1,.469,2.749C33.588,67.242,32.315,67.979,30.236,67.979ZM12.739,41.5,26.214,55.041c1.341,1.341,2.48,2.48,2.48,4.559a16.322,16.322,0,0,1-.6,3.888,9.81,9.81,0,0,0-.469,2.614c0,.737,1.006,1.207,2.614,1.207s2.614-.469,2.614-1.207a9.81,9.81,0,0,0-.469-2.614,16.322,16.322,0,0,1-.6-3.888c0-2.078,1.14-3.218,2.48-4.559L47.733,41.5l.268.134a1.637,1.637,0,0,0,1.944-.335,1.707,1.707,0,1,0-2.346-2.48,1.637,1.637,0,0,0-.4,1.877l.067.268L36.806,50.348a1.412,1.412,0,0,1-.871.335,1.345,1.345,0,0,1-1.341-1.341.969.969,0,0,1,.134-.469l6.3-16.625H41.3a1.742,1.742,0,0,0,1.609-1.073,1.563,1.563,0,0,0,0-1.341,2.118,2.118,0,0,0-.939-.939,1.563,1.563,0,0,0-1.341,0,2.118,2.118,0,0,0-.939.939,1.637,1.637,0,0,0,.4,1.877l.2.2-6.57,14.681a1.266,1.266,0,0,1-1.207.737,1.345,1.345,0,0,1-1.341-1.341l-.6-18.3.268-.067a1.677,1.677,0,0,0,1.073-1.609,1.743,1.743,0,1,0-3.486,0A1.677,1.677,0,0,0,29.5,27.622l.268.067-.536,18.368a1.289,1.289,0,0,1-1.341,1.274,1.335,1.335,0,0,1-1.207-.737L20.248,31.913l.2-.2a1.637,1.637,0,0,0,.4-1.877,1.782,1.782,0,0,0-2.279-.939,2.118,2.118,0,0,0-.939.939,1.563,1.563,0,0,0,0,1.341,1.742,1.742,0,0,0,1.609,1.073h.268l6.369,16.625a1.141,1.141,0,0,1,.067.469,1.345,1.345,0,0,1-1.341,1.341,1.274,1.274,0,0,1-.871-.335L13.276,40.963l.067-.268a1.637,1.637,0,0,0-.4-1.877,1.707,1.707,0,1,0-2.346,2.48,1.871,1.871,0,0,0,1.944.335Z" transform="translate(-9.362 -23.6)" fill="#cdc1b6"/>
      </g>
    </g>
  </g>
</svg>
