<svg xmlns="http://www.w3.org/2000/svg" width="18.443" height="14.985" viewBox="0 0 18.443 14.985">
  <path id="Fill-1" d="M35.918,21.333a6.151,6.151,0,0,1-2.373.842h0a3.8,3.8,0,0,0-6.459,3.478h0a10.537,10.537,0,0,1-7.844-3.948A3.807,3.807,0,0,0,20.4,26.732a2.446,2.446,0,0,1-1.662-.431,3.667,3.667,0,0,0,2.935,3.719,3.013,3.013,0,0,1-1.584.12,3.6,3.6,0,0,0,3.4,2.582A6.767,6.767,0,0,1,18,34.3a11.432,11.432,0,0,0,5.952,1.682A10.57,10.57,0,0,0,34.6,24.873c0-.007,0-.014,0-.021s0-.032,0-.048,0-.037,0-.056A6.564,6.564,0,0,0,36.443,22.8a6.668,6.668,0,0,1-2.11.6,4.042,4.042,0,0,0,1.585-2.067" transform="translate(-18 -21)" fill="#fff" fill-rule="evenodd"/>
</svg>
