<svg xmlns="http://www.w3.org/2000/svg" width="22.665" height="15.968" viewBox="0 0 22.665 15.968">
  <path id="Path_952" data-name="Path 952" d="M30.191,36.493a2.848,2.848,0,0,0-2-2.017C26.42,34,19.332,34,19.332,34s-7.087,0-8.855.477a2.848,2.848,0,0,0-2,2.017,32.062,32.062,0,0,0,0,10.981,2.848,2.848,0,0,0,2,2.017c1.767.477,8.855.477,8.855.477s7.087,0,8.855-.477a2.848,2.848,0,0,0,2-2.017,32.061,32.061,0,0,0,0-10.981ZM17.014,45.354v-6.74l5.924,3.37Z" transform="translate(-8 -34)" fill="#fff"/>
</svg>
