<svg id="Component_3_11" data-name="Component 3 – 11" xmlns="http://www.w3.org/2000/svg" xmlns:xlink="http://www.w3.org/1999/xlink" width="141.5" height="78.627" viewBox="0 0 141.5 78.627">
  <defs>
    <clipPath id="clip-path">
      <rect id="Rectangle_937" data-name="Rectangle 937" width="141.5" height="78.627" fill="none"/>
    </clipPath>
  </defs>
  <g id="Group_2185" data-name="Group 2185" transform="translate(0 0)">
    <g id="Group_2169" data-name="Group 2169" transform="translate(0 0)" clip-path="url(#clip-path)">
      <path id="Path_804" data-name="Path 804" d="M39.173,13.941c.279,0,.418,0,.558-.139L46.98,38.059c.836,2.649,4.74,4.74,9.48,4.74s8.643-2.091,9.48-4.74L73.05,13.8h.558a2.556,2.556,0,1,0-1.115-.279l-8.225,17.7L65.661,7.389a2.509,2.509,0,1,0-2.509-2.509,2.552,2.552,0,0,0,1.812,2.37L59.527,30.531,56.739,5.019A2.434,2.434,0,0,0,58.83,2.509a2.509,2.509,0,1,0-5.019,0A2.557,2.557,0,0,0,55.9,5.019L53.254,30.67l-5.3-23.281a2.39,2.39,0,0,0,1.812-2.37,2.509,2.509,0,1,0-2.509,2.509l1.394,23.839-8.225-17.7A2.5,2.5,0,1,0,36.8,11.432a2.3,2.3,0,0,0,2.37,2.509M56.46,35.967c4.322,0,7.807,1.115,7.807,2.509s-3.485,2.509-7.807,2.509-7.807-1.115-7.807-2.509c-.139-1.394,3.485-2.509,7.807-2.509" transform="translate(14.499 0)" fill="#a37e2c"/>
      <path id="Path_805" data-name="Path 805" d="M26.069,60.766l-1.533-4.6a8.645,8.645,0,0,0-2.37-4.043,6.624,6.624,0,0,0-2.649-1.255A6.176,6.176,0,0,0,18.541,38.6H.139v1.812H3.485V60.766H0v1.812H12.407V60.766H9.062V51.007h3.485a10.835,10.835,0,0,1,2.231.279,6.034,6.034,0,0,1,1.673.7A7.405,7.405,0,0,1,18.263,53.8a3.047,3.047,0,0,0,.418.7,34.117,34.117,0,0,1,2.37,7.946H29V60.627ZM14.917,49.2H9.062V40.412h5.855a4.375,4.375,0,0,1,4.461,4.322A4.492,4.492,0,0,1,14.917,49.2" transform="translate(0 15.212)" fill="#006039"/>
      <path id="Path_806" data-name="Path 806" d="M34.665,38A12.826,12.826,0,1,0,47.63,50.826,12.911,12.911,0,0,0,34.665,38M40.1,58.214a7.988,7.988,0,0,1-1.534,1.533A5.773,5.773,0,0,1,35.362,61H33.968a5.773,5.773,0,0,1-3.206-1.255,7.988,7.988,0,0,1-1.534-1.533A12.247,12.247,0,0,1,27,50.826a12.9,12.9,0,0,1,1.952-7.11,6,6,0,0,1,3.067-2.788.137.137,0,0,0,.139-.139c.139-.139.279-.139.558-.139a8.159,8.159,0,0,1,1.812-.279,7.063,7.063,0,0,1,1.812.279c.139,0,.418.139.558.139a.137.137,0,0,1,.139.139A6.6,6.6,0,0,1,40.1,43.716a12.571,12.571,0,0,1,1.952,7.11A10.551,10.551,0,0,1,40.1,58.214" transform="translate(8.552 14.975)" fill="#006039"/>
      <path id="Path_807" data-name="Path 807" d="M65.184,53.238H63.372v3.625a3.929,3.929,0,0,1-4.043,3.9H51.662V40.412h3.485V38.6H42.6v1.812h3.485V60.766H42.6v1.812H65.184v-9.34" transform="translate(16.788 15.212)" fill="#006039"/>
      <path id="Path_808" data-name="Path 808" d="M85.3,38.7H61.6v1.812h3.485V60.866H61.6v1.812H85.439v-8.5H83.627v2.788a3.929,3.929,0,0,1-4.043,3.9H70.522V50.689H73.45a2.945,2.945,0,0,1,2.928,2.928v1.394H78.05V44.973H76.377v1.115a2.747,2.747,0,0,1-2.928,2.788H70.522V40.233h9.062a4.115,4.115,0,0,1,4.043,3.9v2.509h1.812v-2.37Z" transform="translate(24.276 15.251)" fill="#006039"/>
      <path id="Path_809" data-name="Path 809" d="M108.585,60.905c-1.673,0-2.091-.558-3.485-2.091l-7.946-9.9,5.3-6.273c1.394-1.673,1.812-2.231,3.625-2.231h1.394V38.6H97.711v1.812h2.231a.9.9,0,0,1,.836.836.512.512,0,0,1-.139.418l-4.6,5.576-3.9-4.461-.7-.976c-.139-.139-.139-.279-.139-.558a.9.9,0,0,1,.836-.836h2.091V38.6H82.1v1.812h.558c1.533.139,1.952.558,3.206,1.952l6.97,8.783-6.273,7.528c-1.394,1.673-1.812,2.231-3.625,2.231H81.4v1.812H91.856V60.905H89.207a.9.9,0,0,1-.836-.836c0-.139.139-.418.139-.558l5.576-6.692,4.6,5.855.7.836c.139.139.139.279.139.558a.9.9,0,0,1-.836.836H96.456v1.812h12.965V60.905Z" transform="translate(32.079 15.212)" fill="#006039"/>
    </g>
  </g>
</svg>
