<svg xmlns="http://www.w3.org/2000/svg" xmlns:xlink="http://www.w3.org/1999/xlink" width="141.329" height="70.564" viewBox="0 0 141.329 70.564">
  <defs>
    <clipPath id="clip-path">
      <rect id="Rectangle_940" data-name="Rectangle 940" width="141.329" height="70.564" fill="#c40d2e"/>
    </clipPath>
  </defs>
  <g id="Group_2175" data-name="Group 2175" clip-path="url(#clip-path)">
    <path id="Path_813" data-name="Path 813" d="M27.447,34A14.294,14.294,0,0,1,13.921,49.1,14.181,14.181,0,0,1,0,34.789,13.934,13.934,0,0,1,13.921,20.481,14.236,14.236,0,0,1,27.447,34m-3.724.785a9.8,9.8,0,0,0-9.8-10.193A10.379,10.379,0,0,0,3.729,34.789,10.249,10.249,0,0,0,13.921,44.982h.2a9.757,9.757,0,0,0,9.606-10.193h0" transform="translate(0 21.269)" fill="#c40d2e"/>
    <path id="Path_814" data-name="Path 814" d="M38.346,20.385,46.971,48.61H42.855l-5.1-16.661L30.506,49.395,23.253,31.949l-4.9,16.661v-.2H14.041l8.625-28.03L30.506,39.2Z" transform="translate(14.582 21.169)" fill="#c40d2e"/>
    <path id="Path_815" data-name="Path 815" d="M84.01,48.813H79.5l-2.744-5.683H62.644L59.7,48.813H55.195L69.5,20ZM74.4,39.4l-5.1-10.388L64.407,39.4Z" transform="translate(57.321 20.77)" fill="#c40d2e"/>
    <path id="Path_816" data-name="Path 816" d="M69.665,34.789a14.195,14.195,0,1,1-2.548-8.232l-3.135,2.35A10.493,10.493,0,0,0,55.748,24.6a10.193,10.193,0,0,0,0,20.385,9.881,9.881,0,0,0,9.606-7.253h-9.41v-3.92H69.47a1.768,1.768,0,0,0,.2.981" transform="translate(43.438 21.269)" fill="#c40d2e"/>
    <path id="Path_817" data-name="Path 817" d="M40.018,33.714l-.391.587H26.69l-2.746-5.488h1.372l1.765,2.744h6.664a18.793,18.793,0,0,1-8.429-15.093C25.316,6.076,34.334,0,43.546,0S61.775,6.076,61.775,16.464a18.787,18.787,0,0,1-8.429,15.093h6.666l1.763-2.744h1.372L60.4,34.3H47.467l-.2-.587c5.683-4.311,9.6-10.193,9.6-17.641,0-7.644-4.9-14.5-13.132-14.5-8.036,0-13.132,7.251-13.132,14.5s3.92,13.33,9.408,17.641" transform="translate(24.866 0)" fill="#c40d2e"/>
    <path id="Path_818" data-name="Path 818" d="M31.829,20.769H48.1v3.92H35.945v7.84h11.76v3.92H35.945v7.644H48.1v3.92H31.829Z" transform="translate(33.055 21.569)" fill="#c40d2e"/>
  </g>
</svg>
