<svg id="Component_5_11" data-name="Component 5 – 11" xmlns="http://www.w3.org/2000/svg" xmlns:xlink="http://www.w3.org/1999/xlink" width="160" height="44.583" viewBox="0 0 160 44.583">
  <defs>
    <clipPath id="clip-path">
      <rect id="Rectangle_939" data-name="Rectangle 939" width="160" height="44.583"/>
    </clipPath>
  </defs>
  <g id="Group_2173" data-name="Group 2173" clip-path="url(#clip-path)">
    <path id="Path_811" data-name="Path 811" d="M111.955,13.632a1.988,1.988,0,1,1-1.988,1.988,1.988,1.988,0,0,1,1.988-1.988" transform="translate(0 0)"/>
    <path id="Path_812" data-name="Path 812" d="M157.087,22.243c-3.067-.067-9.066,4.751-9.774,5.492l3.135-5.357h-4.719c-6.066,10.276-18.739,20.283-24.367,20.485-5.09.37-5.46-3.268-3.775-7.58v.033c7.213.741,19.885-6.671,15.908-12.163-3.4-3.4-12.571.169-18.4,7.951l-.4.607-.876,1.28a67.9,67.9,0,0,1-6.3,6.738c-5.46,5.357-7.92,2.224-5.628-1.65l9-15.6h-4.044C105.724,24,100.264,34,91.4,40.269c-5.022,3.84-8.931,2.19-5.426-2.8l8.8-14.993,4.887-.033.64-.674H95.276l5.325-9.3H96.152c-2.36,4.01-7.886,13.343-13.414,15.7a4.311,4.311,0,0,0,.64-3.066,3.031,3.031,0,0,0-2.662-2.223s-3.2-.472-6.842,2.762l1.955-3.234H71.347c-3.91,6.94-14.29,21.7-19.953,20.282-1.516-.674-1.617-2.594-.033-5.188l8.965-15.161h-4.45c-.606.91-2.426,4.38-2.392,4.312.168-.91.4-4.414-3.033-5.121a8.662,8.662,0,0,0-2.056-.2c-3.809-.034-7.65,1.954-11.426,5.29a34.467,34.467,0,0,0-7.313,9.4c-9.134,8.389-18.5,8.86-21.57,5.727C4.85,38.415,3.57,31.576,9.569,20.053c2.123-3,10.01-16,21.368-19,8.493-2.257,11.93,2.527,12.234,8.086a41.3,41.3,0,0,1,5.46-7.816c-1.787.741-5.7,1.65-7.516.539C35.621-1.644,25.038-1.105,11.49,11.5-.138,23.288-8.4,46.2,14.658,44.413c8.156-1.011,15-7.514,15-7.514-1.079,3.942.674,6.907,4.044,7.514a9.092,9.092,0,0,0,4.483-.674,28.552,28.552,0,0,0,7.313-4.28c-1.078,4.313,5.6,10.748,17.9-4.446l-5.7,9.13,5.19-.034s8.662-15.3,10.246-16.846c3.37-4.48,9.572-5.323,9.47-2.19a2.811,2.811,0,0,0-1.786-.336c-1.483.235-2.157,2.089-1.853,3.369a1.992,1.992,0,0,0,1.112,1.213s2.9,2.021,9.875-6.705L88.94,24.4S81.9,36.529,80.986,38.247c-3.573,6.84,4.887,7.48,9.942,3.133a68.386,68.386,0,0,0,8.8-8.153,3.031,3.031,0,0,0-.169.337c-2.427,4.346-5.09,8.793-1.651,10.714.977.438,3.64.741,6.943-1.584a66.929,66.929,0,0,0,8.088-7.884c-1.18,2.73-2.258,7.21,2.528,9.232,2.7.842,4.887.3,7.583-.607,8.46-2.762,19.278-15.16,19.278-15.16s-9.167,15.228-9.47,15.8l4.65-.033s6.607-11.186,7.955-13.072c3.606-5.66,11.425-9.535,12.234-7.581-2.9-.573-3.606,3.706-1.314,4.582C159.952,29.352,162.008,22.513,157.087,22.243Zm-28.08.32c1.248.135,1.854.775,1.72,2.527-.4,3.775-5.932,9.942-13.01,9.74,2.461-5.8,8.325-12.537,11.29-12.267M43.98,39.75a20.935,20.935,0,0,1-3,2.056c-6.773,3.4-8.29-.3-7.549-3.74.64-2.966,3.27-7.314,5.426-9.976a21.01,21.01,0,0,1,6.64-5.156c5.628-2.764,9.065.707,6.74,5.628A33.55,33.55,0,0,1,43.98,39.75" transform="translate(0 0)"/>
  </g>
</svg>
