<svg id="Component_8_11" data-name="Component 8 – 11" xmlns="http://www.w3.org/2000/svg" xmlns:xlink="http://www.w3.org/1999/xlink" width="246.622" height="39.313" viewBox="0 0 246.622 39.313">
  <defs>
    <clipPath id="clip-path">
      <rect id="Rectangle_936" data-name="Rectangle 936" width="246.622" height="39.313" fill="none"/>
    </clipPath>
  </defs>
  <g id="Group_2186" data-name="Group 2186" transform="translate(0 0)">
    <g id="Group_2167" data-name="Group 2167" transform="translate(0 0)" clip-path="url(#clip-path)">
      <path id="Path_764" data-name="Path 764" d="M134.656,68.976l-.713-.433a3.205,3.205,0,0,1-.953-.808,1.529,1.529,0,0,1-.287-.914,1.613,1.613,0,0,1,.539-1.259,2,2,0,0,1,1.393-.485,2.649,2.649,0,0,1,1.506.464V66.6a2.178,2.178,0,0,0-1.523-.676,1.261,1.261,0,0,0-.754.212.643.643,0,0,0-.3.543.834.834,0,0,0,.219.55,2.737,2.737,0,0,0,.7.541l.714.426a2.111,2.111,0,0,1,1.193,1.83,1.674,1.674,0,0,1-.526,1.282,1.926,1.926,0,0,1-1.371.492,2.86,2.86,0,0,1-1.765-.6V70.009a2.2,2.2,0,0,0,1.758.966,1.105,1.105,0,0,0,.734-.246.775.775,0,0,0,.293-.618c0-.4-.291-.778-.864-1.135" transform="translate(-66.853 -32.784)" fill="#181716"/>
      <path id="Path_765" data-name="Path 765" d="M152,65.274h.936l-2.642,6.583h-.216l-2.134-5.331-2.161,5.331h-.222l-2.624-6.583h.945l1.8,4.519,1.822-4.519h.9l1.81,4.519Z" transform="translate(-72.008 -32.884)" fill="#181716"/>
      <rect id="Rectangle_931" data-name="Rectangle 931" width="0.942" height="6.551" transform="translate(82.738 32.39)" fill="#181716"/>
      <path id="Path_766" data-name="Path 766" d="M175.029,68.976l-.712-.433a3.227,3.227,0,0,1-.955-.808,1.533,1.533,0,0,1-.282-.914,1.611,1.611,0,0,1,.536-1.259,2,2,0,0,1,1.393-.485,2.644,2.644,0,0,1,1.506.464V66.6a2.173,2.173,0,0,0-1.522-.676,1.257,1.257,0,0,0-.753.212.642.642,0,0,0-.294.543.831.831,0,0,0,.216.55,2.828,2.828,0,0,0,.7.541l.714.426a2.11,2.11,0,0,1,1.194,1.83,1.678,1.678,0,0,1-.526,1.282,1.927,1.927,0,0,1-1.37.492,2.86,2.86,0,0,1-1.765-.6V70.009a2.2,2.2,0,0,0,1.757.966,1.1,1.1,0,0,0,.732-.246.77.77,0,0,0,.293-.618q0-.6-.864-1.135" transform="translate(-87.194 -32.784)" fill="#181716"/>
      <path id="Path_767" data-name="Path 767" d="M186.059,68.976l-.712-.433a3.2,3.2,0,0,1-.955-.808,1.533,1.533,0,0,1-.283-.914,1.62,1.62,0,0,1,.535-1.259,2.005,2.005,0,0,1,1.395-.485,2.63,2.63,0,0,1,1.5.464V66.6a2.163,2.163,0,0,0-1.519-.676,1.265,1.265,0,0,0-.755.212.648.648,0,0,0-.294.543.84.84,0,0,0,.219.55,2.789,2.789,0,0,0,.7.541l.713.426a2.106,2.106,0,0,1,1.194,1.83,1.678,1.678,0,0,1-.525,1.282,1.925,1.925,0,0,1-1.368.492,2.86,2.86,0,0,1-1.767-.6V70.009a2.2,2.2,0,0,0,1.758.966,1.1,1.1,0,0,0,.732-.246.769.769,0,0,0,.292-.618q0-.6-.863-1.135" transform="translate(-92.75 -32.784)" fill="#181716"/>
      <path id="Path_768" data-name="Path 768" d="M206.081,69.019l-1.064-2.37-.988,2.37Zm-1.386-3.81h.658l2.934,6.582h-.959l-.872-1.937h-2.79l-.817,1.937h-.963Z" transform="translate(-101.706 -32.851)" fill="#181716"/>
      <path id="Path_769" data-name="Path 769" d="M220.271,65.274h.943l-2.775,6.583h-.219l-2.807-6.583h.942l1.963,4.6Z" transform="translate(-108.52 -32.884)" fill="#181716"/>
      <path id="Path_770" data-name="Path 770" d="M231.915,69.019l-1.063-2.37-.987,2.37Zm-1.387-3.81h.658l2.935,6.582h-.963l-.869-1.937H229.5l-.815,1.937h-.964Z" transform="translate(-114.72 -32.851)" fill="#181716"/>
      <path id="Path_771" data-name="Path 771" d="M249.473,65.274h.888v6.551h-.8l-4.378-5.046v5.046H244.3V65.274h.756l4.412,5.088Z" transform="translate(-123.075 -32.884)" fill="#181716"/>
      <path id="Path_772" data-name="Path 772" d="M260.394,65.274h5.47v.835h-2.28v5.716h-.944V66.109h-2.245Z" transform="translate(-131.181 -32.884)" fill="#181716"/>
      <rect id="Rectangle_932" data-name="Rectangle 932" width="2.333" height="0.91" transform="translate(134.682 36.361)" fill="#181716"/>
      <path id="Path_773" data-name="Path 773" d="M283.823,68.493h2.206v2.784a6,6,0,0,1-2.4.523,3.558,3.558,0,0,1-2.6-.95,3.155,3.155,0,0,1-.973-2.347,3.268,3.268,0,0,1,1.009-2.448,3.49,3.49,0,0,1,2.527-.978,4.294,4.294,0,0,1,1.05.124,8.285,8.285,0,0,1,1.257.447V66.6a4.582,4.582,0,0,0-2.325-.686,2.508,2.508,0,0,0-2.544,2.534,2.43,2.43,0,0,0,.734,1.83,2.607,2.607,0,0,0,1.891.709A4.386,4.386,0,0,0,285,70.728l.088-.028V69.329h-1.264Z" transform="translate(-141.086 -32.784)" fill="#181716"/>
      <path id="Path_774" data-name="Path 774" d="M298.977,69.019l-1.064-2.37-.988,2.37Zm-1.386-3.81h.659l2.935,6.582h-.961l-.872-1.937h-2.79l-.816,1.937h-.963Z" transform="translate(-148.505 -32.851)" fill="#181716"/>
      <path id="Path_775" data-name="Path 775" d="M311.814,66.065h-.279v2.077h.354a2.568,2.568,0,0,0,.972-.124.91.91,0,0,0,.411-.37,1.067,1.067,0,0,0,.148-.563,1.029,1.029,0,0,0-.164-.563.893.893,0,0,0-.459-.355,3.3,3.3,0,0,0-.983-.1m-1.223,5.758v-6.55h1.639a2.371,2.371,0,0,1,1.58.492,1.657,1.657,0,0,1,.581,1.333,1.642,1.642,0,0,1-1.108,1.614,2.971,2.971,0,0,1,.62.563,11.214,11.214,0,0,1,.846,1.241c.228.373.411.651.548.838l.348.468H314.53l-.287-.431c-.008-.015-.028-.042-.056-.079L314,71.056l-.291-.477-.312-.511a5.337,5.337,0,0,0-.533-.642,2.083,2.083,0,0,0-.437-.344,1.489,1.489,0,0,0-.654-.1h-.244v2.846Z" transform="translate(-156.469 -32.884)" fill="#181716"/>
      <path id="Path_776" data-name="Path 776" d="M325.731,66.109h-1.175v4.88h1.2a4.744,4.744,0,0,0,1.095-.1,2.545,2.545,0,0,0,.651-.244,2.233,2.233,0,0,0,.476-.365,2.425,2.425,0,0,0,.7-1.78,2.275,2.275,0,0,0-1.319-2.133,2.517,2.517,0,0,0-.646-.211,6.511,6.511,0,0,0-.983-.052m-2.114,5.716V65.274h2.212a4.67,4.67,0,0,1,2.121.4,3.019,3.019,0,0,1,1.24,1.182,3.272,3.272,0,0,1,.463,1.7,3.236,3.236,0,0,1-2.095,3.025,3.3,3.3,0,0,1-.681.193,8.743,8.743,0,0,1-1.184.051Z" transform="translate(-163.031 -32.884)" fill="#181716"/>
      <path id="Path_777" data-name="Path 777" d="M340.295,65.274h3.713v.835h-2.774v2h2.678v.835h-2.678v2.043h2.86v.836h-3.8Z" transform="translate(-171.433 -32.884)" fill="#181716"/>
      <path id="Path_778" data-name="Path 778" d="M360.987,68.976l-.715-.433a3.266,3.266,0,0,1-.955-.808,1.533,1.533,0,0,1-.283-.914,1.624,1.624,0,0,1,.538-1.259,2,2,0,0,1,1.394-.485,2.64,2.64,0,0,1,1.506.464V66.6a2.169,2.169,0,0,0-1.521-.676,1.262,1.262,0,0,0-.754.212.642.642,0,0,0-.294.543.819.819,0,0,0,.219.55,2.69,2.69,0,0,0,.7.541l.714.426a2.108,2.108,0,0,1,1.194,1.83,1.674,1.674,0,0,1-.527,1.282,1.922,1.922,0,0,1-1.369.492,2.859,2.859,0,0,1-1.765-.6V70.009a2.2,2.2,0,0,0,1.758.966,1.109,1.109,0,0,0,.733-.246.768.768,0,0,0,.292-.618q0-.6-.862-1.135" transform="translate(-180.874 -32.784)" fill="#181716"/>
      <rect id="Rectangle_933" data-name="Rectangle 933" width="0.943" height="6.551" transform="translate(183.966 32.39)" fill="#181716"/>
      <path id="Path_779" data-name="Path 779" d="M382.955,65.274h.886v6.551h-.8L378.66,66.78v5.046h-.877V65.274h.756l4.415,5.088Z" transform="translate(-190.319 -32.884)" fill="#181716"/>
      <path id="Path_780" data-name="Path 780" d="M400.4,70.206v1.028a4.865,4.865,0,0,1-2.382.566,3.635,3.635,0,0,1-1.859-.442,3.241,3.241,0,0,1-1.209-1.216,3.3,3.3,0,0,1-.446-1.677,3.205,3.205,0,0,1,1.018-2.41,3.49,3.49,0,0,1,2.511-.978,5.954,5.954,0,0,1,2.293.536v1.007a4.515,4.515,0,0,0-2.242-.654,2.585,2.585,0,0,0-1.865.712,2.367,2.367,0,0,0-.742,1.784,2.337,2.337,0,0,0,.731,1.774,2.591,2.591,0,0,0,1.869.7,4.248,4.248,0,0,0,2.323-.727" transform="translate(-198.743 -32.785)" fill="#181716"/>
      <path id="Path_781" data-name="Path 781" d="M410.869,65.274h3.713v.835h-2.77v2h2.674v.835h-2.674v2.043h2.856v.836h-3.8Z" transform="translate(-206.987 -32.884)" fill="#181716"/>
      <rect id="Rectangle_934" data-name="Rectangle 934" width="0.942" height="6.551" transform="translate(214.723 32.39)" fill="#181716"/>
      <path id="Path_782" data-name="Path 782" d="M444.439,66.952a.935.935,0,0,0-.294-.708,1.045,1.045,0,0,0-.745-.278,1.059,1.059,0,0,0-.747.273.926.926,0,0,0-.289.7.938.938,0,0,0,.306.7,1.043,1.043,0,0,0,.739.29,1.009,1.009,0,0,0,.729-.289.926.926,0,0,0,.3-.694m.085,3.012V69.87a.937.937,0,0,0-.323-.737,1.212,1.212,0,0,0-.837-.287,1.183,1.183,0,0,0-.823.288.964.964,0,0,0-.32.745.945.945,0,0,0,.328.745,1.217,1.217,0,0,0,.842.289,1.233,1.233,0,0,0,.815-.265.845.845,0,0,0,.318-.684m-3.094-3.042a1.721,1.721,0,0,1,.578-1.306,2,2,0,0,1,1.411-.537,1.939,1.939,0,0,1,1.385.532,1.743,1.743,0,0,1-.248,2.759,1.691,1.691,0,0,1,.91,1.552,1.73,1.73,0,0,1-.591,1.347,2.351,2.351,0,0,1-2.989-.011,1.74,1.74,0,0,1-.6-1.345,1.7,1.7,0,0,1,.923-1.543,2.311,2.311,0,0,1-.594-.673,1.613,1.613,0,0,1-.181-.775" transform="translate(-222.308 -32.785)" fill="#181716"/>
      <path id="Path_783" data-name="Path 783" d="M454.333,69.181a2.752,2.752,0,0,0-.039.491,1.287,1.287,0,0,0,.323.908,1.054,1.054,0,0,0,.822.356.991.991,0,0,0,.746-.3,1.061,1.061,0,0,0,.292-.767,1,1,0,0,0-.31-.765,1.17,1.17,0,0,0-.826-.294,1.306,1.306,0,0,0-.474.081,2.57,2.57,0,0,0-.533.294m1.548-4.035.094-.065.567.718a5.7,5.7,0,0,0-1.245,1.06,4.117,4.117,0,0,0-.764,1.352,2.24,2.24,0,0,1,1.038-.272,1.747,1.747,0,0,1,1.306.549,1.861,1.861,0,0,1,.531,1.347,1.892,1.892,0,0,1-.578,1.4,1.914,1.914,0,0,1-1.4.571,1.894,1.894,0,0,1-1.5-.649,2.491,2.491,0,0,1-.57-1.7,4.408,4.408,0,0,1,.294-1.57,5.281,5.281,0,0,1,.842-1.466,6.712,6.712,0,0,1,1.381-1.267" transform="translate(-228.394 -32.786)" fill="#181716"/>
      <path id="Path_784" data-name="Path 784" d="M467.1,65.967h-.046a.96.96,0,0,0-.855.665,4.233,4.233,0,0,0-.317,1.8,4.411,4.411,0,0,0,.309,1.827.882.882,0,0,0,1.709,0,4.228,4.228,0,0,0,.315-1.8,4.53,4.53,0,0,0-.3-1.819q-.3-.674-.812-.675m-.007-.889a1.726,1.726,0,0,1,1.487.947,5.259,5.259,0,0,1,0,4.831,1.722,1.722,0,0,1-3.053.018,5.344,5.344,0,0,1,.018-4.86,1.783,1.783,0,0,1,1.548-.937" transform="translate(-234.231 -32.785)" fill="#181716"/>
      <path id="Path_785" data-name="Path 785" d="M242.749,24.391c-4.792,1.075-10.955,1.394-15.4-.656-3.8-1.663-6.145-5.632-6.627-9.515a12.428,12.428,0,0,1,5.1-11.751C230.28-.719,237.346-.614,242.2,1.6V6.455c-3.674-1.687-9.2-2.679-12.724,0a7.873,7.873,0,0,0,2.236,13.526,13.347,13.347,0,0,0,5.5.465V16.492l-2.423.006V11.733h7.952V24.391Z" transform="translate(-111.151 0)" fill="#181716"/>
      <path id="Path_786" data-name="Path 786" d="M131.459,24.963V5.147h8.8V.513H116.417V5.147h8.8V24.963Z" transform="translate(-58.648 -0.258)" fill="#181716"/>
      <path id="Path_787" data-name="Path 787" d="M179.187.511h-7.145L162.02,24.96H168.6l1.882-4.8h10.953l2.008,4.8h6.58Zm-6.978,15.2,3.522-9.14,3.81,9.14Z" transform="translate(-81.622 -0.257)" fill="#181716"/>
      <path id="Path_788" data-name="Path 788" d="M295.726,11.053H281.843V.522h-3.726V24.971h3.726V14.346h13.883l-.012,10.625h3.736V.522h-3.736Z" transform="translate(-140.11 -0.263)" fill="#181716"/>
      <path id="Path_789" data-name="Path 789" d="M388.925,21.411a6.678,6.678,0,0,1-6.215,4.141c-4.338,0-4.986-3.357-4.986-5.358V7.137H374l0,12.552c0,8.471,6.379,9.128,8.333,9.128a9.485,9.485,0,0,0,6.6-2.523l0,2.018h3.734V7.137h-3.73Z" transform="translate(-188.412 -3.596)" fill="#181716"/>
      <path id="Path_790" data-name="Path 790" d="M481.022,8.926c-.1-.108-2.4-2.667-5.369-2.667-2.621,0-5.175,2.518-6.639,4.278l0-3.9h-3.733V27.861h3.728l0-12.654c.966-1.62,3.646-5.324,5.876-5.324,1.867,0,3.831,2.109,3.851,2.13Z" transform="translate(-234.4 -3.153)" fill="#181716"/>
      <path id="Path_791" data-name="Path 791" d="M331.368,13.954a5.588,5.588,0,0,1,5.826-4.176c4.452,0,5.7,2.682,6.038,4.176Zm5.837-7.7c-5.836,0-10.236,4.351-10.236,10.977,0,4.555,3.082,11.1,11.35,11.1a13.289,13.289,0,0,0,8.555-2.99l.221-.2V20.795l-1.154,1.1a11.858,11.858,0,0,1-7.354,2.975c-4.564,0-7.75-2.659-7.75-7.576v-.042h16.656v-.682c0-5.237-3.22-10.312-10.289-10.312" transform="translate(-164.72 -3.152)" fill="#181716"/>
      <path id="Path_792" data-name="Path 792" d="M422.242,13.954a5.588,5.588,0,0,1,5.826-4.176c4.452,0,5.7,2.682,6.037,4.176Zm5.837-7.7c-5.836,0-10.236,4.351-10.236,10.977,0,4.555,3.082,11.1,11.35,11.1a13.289,13.289,0,0,0,8.555-2.99l.221-.2V20.795l-1.154,1.1a11.858,11.858,0,0,1-7.354,2.975c-4.564,0-7.75-2.659-7.75-7.576v-.042h16.656v-.682c0-5.237-3.221-10.312-10.289-10.312" transform="translate(-210.5 -3.152)" fill="#181716"/>
      <path id="Path_793" data-name="Path 793" d="M0,26.711V.633H45.035V26.713L22.522,39.632Z" transform="translate(0 -0.319)" fill="#181716" fill-rule="evenodd"/>
      <path id="Path_794" data-name="Path 794" d="M2.294,2.939V27.207l21.363,12.28.01.006H23.7L45.02,27.219l.022-.011V2.953Z" transform="translate(-1.155 -1.481)" fill="#fff"/>
      <rect id="Rectangle_935" data-name="Rectangle 935" width="39.699" height="12.689" transform="translate(2.663 2.888)" fill="#268151"/>
      <path id="Path_795" data-name="Path 795" d="M5.367,34.166v8.011L25.225,53.583l19.84-11.4V34.166Z" transform="translate(-2.704 -17.212)" fill="#e3001e" fill-rule="evenodd"/>
      <path id="Path_796" data-name="Path 796" d="M45.328,51.228V37.183a.073.073,0,0,0-.073-.074H43.823a.074.074,0,0,0-.074.074V50.371l-1.658.906-1.665-.906V37.183a.074.074,0,0,0-.074-.074H38.92a.078.078,0,0,0-.053.022.072.072,0,0,0-.021.052V51.228a.073.073,0,0,0,.037.064l3.17,1.82a.075.075,0,0,0,.074,0l3.164-1.819a.074.074,0,0,0,.037-.064" transform="translate(-19.57 -18.695)" fill="#fff"/>
      <path id="Path_797" data-name="Path 797" d="M29.607,49.94a.066.066,0,0,0,.069,0,.073.073,0,0,0,.036-.064v-1.52a.075.075,0,0,0-.038-.066l-3.036-1.656V42.958l2.726.7a.075.075,0,0,0,.053-.075v-1.5c0-.028-.033-.062-.07-.07l-2.709-.6V38.489h3.005a.072.072,0,0,0,.07-.073V37.183a.072.072,0,0,0-.07-.074h-4.46a.073.073,0,0,0-.07.074V47.307a.075.075,0,0,0,.036.065Z" transform="translate(-12.651 -18.695)" fill="#fff"/>
      <path id="Path_798" data-name="Path 798" d="M61.593,47.132V45.759a.074.074,0,0,0-.036-.064.08.08,0,0,0-.072,0L58.506,47.32V43.278l2.775-.709a.075.075,0,0,0,.056-.072V41.153a.077.077,0,0,0-.028-.058.078.078,0,0,0-.046-.016l-2.757.6V38.489h3.012a.073.073,0,0,0,.072-.074V37.182a.074.074,0,0,0-.072-.073H57.065a.074.074,0,0,0-.074.073V49.694a.074.074,0,0,0,.111.064L61.556,47.2a.074.074,0,0,0,.037-.064" transform="translate(-28.711 -18.695)" fill="#fff"/>
      <path id="Path_799" data-name="Path 799" d="M13.113,45.2l1.23.711a.076.076,0,0,0,.073,0,.077.077,0,0,0,.037-.064V37.183a.075.075,0,0,0-.074-.074H13.149a.074.074,0,0,0-.072.074v3.054l-2.965-.651v-2.4a.073.073,0,0,0-.072-.074H8.822a.075.075,0,0,0-.073.074V42.66a.078.078,0,0,0,.037.066l1.215.69a.072.072,0,0,0,.073,0,.074.074,0,0,0,.037-.064V40.841l2.965.757v3.537a.072.072,0,0,0,.037.064" transform="translate(-4.408 -18.695)" fill="#fff"/>
      <path id="Path_800" data-name="Path 800" d="M72.282,38.489h2.581a.209.209,0,0,1,.209.209v.654c0,.15-.028.232-.221.277l-2.569.564Zm-1.356,7.3a.08.08,0,0,0,.075,0l1.272-.722a.018.018,0,0,0,.009-.015V41.549l.743-.195,2.185,1.955a.073.073,0,0,0,.1.019l1.113-.646a.068.068,0,0,0,.034-.048.076.076,0,0,0,0-.046L74.54,40.968l1.352-.344c.45-.116.52-.325.515-.782l0-2.226a.588.588,0,0,0-.628-.509.425.425,0,0,0-.048,0H70.965a.089.089,0,0,0-.075.087v8.532a.075.075,0,0,0,.036.064" transform="translate(-35.713 -18.694)" fill="#fff"/>
      <path id="Path_801" data-name="Path 801" d="M17.29,18.49V10.965h4.121v-2H10.245v2h4.121V18.49Z" transform="translate(-5.161 -4.514)" fill="#fff" fill-rule="evenodd"/>
      <path id="Path_802" data-name="Path 802" d="M68.919,18.164a14.455,14.455,0,0,1-7.214-.255A4.78,4.78,0,0,1,58.6,14.2a4.532,4.532,0,0,1,2.391-4.576c2.086-1.241,5.395-1.2,7.668-.337v2.072c-1.718-.656-4.308-1.225-5.959-.181a2.779,2.779,0,0,0-1.254,3.154,3.314,3.314,0,0,0,2.3,2.111,7.435,7.435,0,0,0,2.578.181v-1.54l-1.135,0V13.236h3.723Z" transform="translate(-29.503 -4.366)" fill="#fff" fill-rule="evenodd"/>
      <path id="Path_803" data-name="Path 803" d="M37.508,11.325,35.735,14.68h3.433Zm-2.579,5.293-.985,1.871H30.962L35.8,8.961h3.345l4.931,9.528H41.091l-1.034-1.871Z" transform="translate(-15.598 -4.514)" fill="#fff" fill-rule="evenodd"/>
    </g>
  </g>
</svg>
