<svg id="Component_6_11" data-name="Component 6 – 11" xmlns="http://www.w3.org/2000/svg" xmlns:xlink="http://www.w3.org/1999/xlink" width="155.898" height="39.313" viewBox="0 0 155.898 39.313">
  <defs>
    <clipPath id="clip-path">
      <rect id="Rectangle_938" data-name="Rectangle 938" width="155.898" height="39.313" fill="#003150"/>
    </clipPath>
  </defs>
  <g id="Group_2171" data-name="Group 2171" clip-path="url(#clip-path)">
    <path id="Path_810" data-name="Path 810" d="M72.634,39.313V32.986H68.2l-2.22-2.22H60.1l-2.685-2.219h-5.9l-2.219-2.22H43.1L39.48,23.242H68.707l1.486,2.664,1.753-2.664H82.909l1.642,2.709,2.219-2.709h28.117l-3.329,3.086H105.1l-1.953,2.22H96.823L94.8,30.767H88.745L86.7,32.986H82.266v6.327Zm1.6-1.021h6.458l-1.22-1.8H75.364Zm3.84-5.816,3.04,4.728V27.881Zm-4.438,4.572,3-4.572-3-4.618Zm2.486-1.532h2.574L77.383,33.3Zm6.1-9.767V31.9h4.106l1-1.043h-3.75l.932-.976h9.764l1.177-1.2H88.789l.888-.976h12.96l1.153-1.221h-10.1l.909-.976h16.533l1.266-1.088H87.147l-2.641,3.707L82.288,24.4H72.567l-2.375,3.64-2.219-3.663H42.165l1.354,1.11H60.14l1.088,1H50.953L52.217,27.7H64.978l.976.954H59.119l1.376,1.2h9.653l1.021.976H67.552l.976,1.043h4.083V25.683Zm-6.214,3.64,1.443,2.021,1.309-2.021Zm-.577-.8h4.017l1.242-1.954H74.276ZM142,18.869l-1.086,1.576h-1.554V12.41h1.953a6.819,6.819,0,0,0,4.083,5.638,7.024,7.024,0,0,0,5.881-.288,2.51,2.51,0,0,0,.688-3.019c-.554-.909-1.908-1.553-5.06-2.219-2.352-.467-7.789-1.132-7.789-6.282S143.381.09,146.155.09a9.178,9.178,0,0,1,5.725,1.93L152.9.556h1.753V8.148h-2.064a6.148,6.148,0,0,0-6.413-5.639,3.658,3.658,0,0,0-3.129,1.266,2.206,2.206,0,0,0-.359.862,2.23,2.23,0,0,0,.026.936c.134.577.311,1.664,5.26,2.73,1.709.355,7.923,1.065,7.923,6.416,0,4.684-3.862,6.259-7.435,6.259a9.362,9.362,0,0,1-6.436-2.22Zm-75.1,1.11A10.592,10.592,0,0,1,62.137,9.79a9.475,9.475,0,0,1,15.534-7.5L78.493.734h2.219V8.392H78.471a7.373,7.373,0,0,0-4.195-5.349,4.767,4.767,0,0,0-5.326,1.11,12.276,12.276,0,0,0,0,13.03,4.566,4.566,0,0,0,5.326,1.2,4.437,4.437,0,0,0,2.951-4.75c0-1.464-.4-1.464-1.953-1.441H74.032V9.968H84.085v2.22h-.82c-1.266,0-1.731,0-1.753,1.441v6.926h-2.22c-.355-.465-.688-.976-1.086-1.441a10.72,10.72,0,0,1-6.348,2.042,9.285,9.285,0,0,1-4.948-1.177M29.649,21a14.632,14.632,0,0,1-2.22-.155,10.21,10.21,0,0,1-8.144-6.9A10.881,10.881,0,0,1,21.748,3.065,11.314,11.314,0,0,1,29.649,0a14.151,14.151,0,0,1,2.73.266,10.341,10.341,0,0,1,6.834,4.817,11.542,11.542,0,0,1-.4,11.52,10.829,10.829,0,0,1-9.165,4.44ZM26.231,3.4c-1.975,1.287-2.707,4.438-2.707,7.169s.865,6.327,3.528,7.48a6.389,6.389,0,0,0,2.575.467,7,7,0,0,0,2.529-.377c3-1.177,3.574-4.55,3.6-7.591A8.419,8.419,0,0,0,33.132,3.4a5.99,5.99,0,0,0-3.483-.955,5.885,5.885,0,0,0-3.33.955Zm92.761,16.981V17.96c2.62,0,3.218.221,3.218-1.31V4.263c0-1.443-.71-1.177-3.218-1.177V.622h18.73V8.881H135.5V7.5a6,6,0,0,0-.911-3.551,4.433,4.433,0,0,0-2.862-.887h-5.348V9.013a5.313,5.313,0,0,0,2.862-.467c.777-.621.844-3.174.844-3.174h2.085V15.539h-2.219s0-2.73-.822-3.6-2.862-.51-2.862-.51v6.658h5.459a3.331,3.331,0,0,0,3.8-2.8,4.537,4.537,0,0,0,0-.755V11.966h2.219V20.4Zm-7.812,0L101.417,5.839V16.494c0,1.8.71,1.51,3.4,1.51v2.375H95.137v-2.4c2.4,0,2.929.288,2.929-1.666V4.685c0-.976-.134-1.6-1.242-1.6H95.137V.622h7.922l8.5,12.431V4.307c0-.666,0-1.287-1.287-1.265h-1.82V.6h9.254V3.043h-2.219c-.844,0-.822.71-.822,1.175v16.16Zm-27.34,0v-2.4c1.331,0,2.774.221,2.774-1.155V3.975c0-1.11-1.287-.909-2.774-.909V.622h9.942V3.065c-1.753,0-2.752-.2-2.752.887V16.827c0,1.331.843,1.177,2.752,1.177v2.375Zm-83.752,0V18.025c2.219,0,2.551-.221,2.752-.577a2.792,2.792,0,0,0,0-1.132V4.663a2.6,2.6,0,0,0-.134-1.021c-.288-.777-2.219-.6-2.707-.6V.6H10.32v2.42c-1.4,0-2.575,0-2.952.532A1.713,1.713,0,0,0,7.124,4.64V17.96H8.676c3.44,0,5.638,0,6.17-1.576a23.167,23.167,0,0,0,.621-4.44h2.042v8.435Zm55.9,0s-6.5-9.655-9.764-14.539V16.494c0,1.731.777,1.487,3.4,1.487v2.4H39.945v-2.4c2.575,0,2.93.177,2.93-1.666V4.663c0-.976.2-1.487-.755-1.576H39.9V.6h7.923l8.455,12.453V4.307c0-.666,0-1.287-1.287-1.265h-1.82V.6h9.254V3.043H60.207c-.911,0-.822.688-.822,1.153V20.379Z" transform="translate(0 0)" fill="#003150"/>
  </g>
</svg>
