<svg id="Group_2224" data-name="Group 2224" xmlns="http://www.w3.org/2000/svg" xmlns:xlink="http://www.w3.org/1999/xlink" width="41.02" height="35.592" viewBox="0 0 41.02 35.592">
  <defs>
    <clipPath id="clip-path">
      <rect id="Rectangle_1006" data-name="Rectangle 1006" width="41.02" height="35.592" fill="#242b21"/>
    </clipPath>
  </defs>
  <g id="Group_2225" data-name="Group 2225">
    <g id="Group_2224-2" data-name="Group 2224" clip-path="url(#clip-path)">
      <path id="Path_880" data-name="Path 880" d="M41.02,43.082H0V9.42H7.235V10.65H1.23v31.2H39.791V10.65H33.978V9.42H41.02Z" transform="translate(0 -7.49)" fill="#242b21"/>
    </g>
  </g>
  <path id="Line_4" data-name="Line 4" d="M14.172-1.771H0V-3H14.172Z" transform="translate(13.503 4.93)" fill="#242b21"/>
  <g id="Group_2227" data-name="Group 2227">
    <g id="Group_2226" data-name="Group 2226" clip-path="url(#clip-path)">
      <path id="Path_881" data-name="Path 881" d="M68.6,66.922V65.434c0-.2-.136-1.213,0-1.345s1.142.006,1.341.006h1.488a.615.615,0,0,0,0-1.229H69.605c-.615,0-1.4-.122-1.874.357s-.357,1.207-.357,1.808v1.892a.615.615,0,0,0,1.229,0" transform="translate(-53.561 -49.974)" fill="#242b21"/>
      <path id="Path_882" data-name="Path 882" d="M111.266,66.922V65.434c0-.2-.136-1.213,0-1.345s1.142.006,1.341.006h1.488a.615.615,0,0,0,0-1.229h-1.826c-.615,0-1.4-.122-1.874.357s-.357,1.207-.357,1.808v1.892a.615.615,0,0,0,1.229,0" transform="translate(-87.482 -49.974)" fill="#242b21"/>
      <path id="Path_883" data-name="Path 883" d="M153.928,66.921V65.433c0-.2-.136-1.213,0-1.345s1.142.006,1.341.006h1.488a.615.615,0,0,0,0-1.229h-1.826c-.615,0-1.4-.122-1.874.357s-.357,1.207-.357,1.808v1.892a.615.615,0,0,0,1.229,0" transform="translate(-121.403 -49.973)" fill="#242b21"/>
      <path id="Path_884" data-name="Path 884" d="M27.212,101.1V99.617c0-.2-.136-1.213,0-1.345s1.142.006,1.341.006h1.488a.615.615,0,0,0,0-1.229H28.213c-.615,0-1.4-.122-1.874.357s-.357,1.207-.357,1.808V101.1a.615.615,0,0,0,1.229,0" transform="translate(-20.65 -77.153)" fill="#242b21"/>
      <path id="Path_885" data-name="Path 885" d="M69.874,101.1V99.617c0-.2-.13-1.222,0-1.345s1.141.006,1.343.006H72.7a.615.615,0,0,0,0-1.229H70.875c-.615,0-1.4-.122-1.874.357s-.357,1.207-.357,1.808V101.1a.615.615,0,0,0,1.229,0" transform="translate(-54.571 -77.153)" fill="#242b21"/>
      <path id="Path_886" data-name="Path 886" d="M111.064,101.7h1.384a3.164,3.164,0,0,0,1.395-.136c.994-.5.691-2.175.675-3.085A1.321,1.321,0,0,0,113.7,97.1a4.612,4.612,0,0,0-1.448-.075c-1.074,0-2.345-.1-2.4,1.339-.041,1.014-.366,3.12,1.054,3.311.774.1,1.108-1.08.327-1.185-.3-.04-.152-.778-.152-1.061,0-.175-.124-1.056,0-1.182a3.983,3.983,0,0,1,1.04.008c.185,0,1.057-.127,1.185,0a4.507,4.507,0,0,1-.012,1.039c0,.183.128,1.056,0,1.185a4.692,4.692,0,0,1-1.039-.012h-1.185a.615.615,0,0,0,0,1.229" transform="translate(-87.292 -77.13)" fill="#242b21"/>
      <path id="Path_887" data-name="Path 887" d="M152.659,101.1V99.617c0-.2-.13-1.222,0-1.345s1.141.006,1.343.006h1.488a.615.615,0,0,0,0-1.229H153.66c-.615,0-1.4-.122-1.874.357s-.357,1.207-.357,1.808V101.1a.615.615,0,0,0,1.229,0" transform="translate(-120.394 -77.153)" fill="#242b21"/>
      <path id="Path_888" data-name="Path 888" d="M111.266,135.29V133.8c0-.2-.136-1.213,0-1.345s1.142.006,1.341.006h1.488a.615.615,0,0,0,0-1.229h-1.826c-.615,0-1.4-.122-1.874.357s-.357,1.207-.357,1.808v1.892a.615.615,0,0,0,1.229,0" transform="translate(-87.482 -104.334)" fill="#242b21"/>
      <path id="Path_889" data-name="Path 889" d="M28.481,135.29V133.8c0-.2-.136-1.213,0-1.345s1.142.006,1.341.006h1.488a.615.615,0,0,0,0-1.229H29.482c-.615,0-1.4-.122-1.874.357s-.357,1.207-.357,1.808v1.892a.615.615,0,0,0,1.229,0" transform="translate(-21.659 -104.334)" fill="#242b21"/>
      <path id="Path_890" data-name="Path 890" d="M71.143,135.29V133.8c0-.2-.136-1.213,0-1.345s1.142.006,1.341.006H73.97a.615.615,0,0,0,0-1.229H72.144c-.615,0-1.4-.122-1.874.357s-.357,1.207-.357,1.808v1.892a.615.615,0,0,0,1.229,0" transform="translate(-55.58 -104.334)" fill="#242b21"/>
      <path id="Path_891" data-name="Path 891" d="M1.663,44.071H40.844a.615.615,0,0,0,0-1.229H1.663a.615.615,0,0,0,0,1.229" transform="translate(-0.85 -34.064)" fill="#242b21"/>
      <path id="Path_892" data-name="Path 892" d="M38.722,3.932H34.9c-.6,0-.952.111-.952-.594,0-.433-.218-1.653.082-1.963.252-.261,1.232-.086,1.579-.086H38c.584,0,.875-.083.875.593,0,.423.255,1.98-.316,2.072-.779.126-.448,1.31.327,1.185,1.576-.254,1.357-2.587,1.207-3.78C39.87-.422,37.469.059,36.21.059c-1.3,0-3.377-.388-3.487,1.462-.076,1.274-.368,3.519,1.41,3.64,1.515.1,3.069,0,4.588,0a.615.615,0,0,0,0-1.229" transform="translate(-25.967 0)" fill="#242b21"/>
      <path id="Path_893" data-name="Path 893" d="M133.8,5.278c1.43,0,2.862.031,4.291,0C140,5.237,139.8,3.613,139.8,2.164c0-.773-.051-1.576-.9-1.9a5.424,5.424,0,0,0-1.8-.092h-2.651c-.65,0-1.308-.03-1.748.556-.474.631-.28,1.735-.28,2.468,0,.929.1,1.876,1.218,2.056.774.125,1.107-1.06.327-1.186-.578-.093-.316-1.644-.316-2.072,0-.642.235-.593.8-.593h2.462c.363,0,1.312-.174,1.579.086.3.292.082,1.545.082,1.963,0,.678-.287.594-.875.594H133.8a.615.615,0,0,0,0,1.229" transform="translate(-105.257 -0.117)" fill="#242b21"/>
    </g>
  </g>
</svg>
