<svg xmlns="http://www.w3.org/2000/svg" width="55.734" height="33.801" viewBox="0 0 55.734 33.801">
  <g id="Group_2209" data-name="Group 2209" transform="translate(0)">
    <path id="Path_860" data-name="Path 860" d="M322.138,105c-1.448-1.031-.211-2.5.449-3.562.63-1.013,1.5-2.894,3.008-1.93,1.474.942.228,2.475-.4,3.478-.682,1.1-1.452,2.882-3.061,2.015-.694-.374-1.313.683-.618,1.058a2.8,2.8,0,0,0,3.344-.368,10.39,10.39,0,0,0,1.34-2,9.54,9.54,0,0,0,1.2-2.093,2.743,2.743,0,0,0-4.53-2.777,10.39,10.39,0,0,0-1.34,2,9.539,9.539,0,0,0-1.2,2.093,2.813,2.813,0,0,0,1.187,3.146c.643.458,1.256-.6.618-1.058" transform="translate(-310.437 -79.666)" fill="#242b21"/>
    <path id="Path_861" data-name="Path 861" d="M339.933,106.632c-1.71-1.217.5-3.651,1.245-4.842.692-1.112,1.929-4.171,3.7-3.04,1.743,1.115-.444,3.554-1.139,4.672-.761,1.224-1.927,4.222-3.8,3.21-.694-.374-1.313.683-.618,1.058a2.8,2.8,0,0,0,3.521-.561,11.688,11.688,0,0,0,.957-1.477c.865-1.39,1.809-2.756,2.6-4.187,1.408-2.532-1.58-5.438-3.989-3.618a5.559,5.559,0,0,0-1.223,1.613l-1.638,2.634c-.377.605-.79,1.2-1.135,1.825a2.81,2.81,0,0,0,.9,3.772c.643.458,1.256-.6.618-1.058" transform="translate(-324.615 -79.049)" fill="#242b21"/>
    <path id="Path_862" data-name="Path 862" d="M357.574,123.527c-1.566-1.115.03-2.89.727-4.01.667-1.072,1.643-3.409,3.287-2.378,1.626,1.02-.072,2.956-.728,4.01-.713,1.146-1.573,3.3-3.287,2.378-.694-.374-1.313.683-.618,1.058a2.818,2.818,0,0,0,3.023-.106,4.623,4.623,0,0,0,1.161-1.46l1.383-2.223a7.011,7.011,0,0,0,.87-1.569,2.766,2.766,0,0,0-3.772-3.294c-1.313.614-2.066,2.466-2.79,3.629a8.522,8.522,0,0,0-1.062,1.877,2.815,2.815,0,0,0,1.187,3.146c.643.458,1.256-.6.618-1.058" transform="translate(-338.639 -93.694)" fill="#242b21"/>
    <path id="Path_863" data-name="Path 863" d="M375.278,140.393c-1.357-.966-.367-2.251.263-3.264.6-.971,1.427-2.524,2.822-1.632,1.354.866.385,2.222-.211,3.18-.652,1.047-1.371,2.526-2.874,1.715-.694-.374-1.313.683-.618,1.058a2.8,2.8,0,0,0,3.147-.2,7.438,7.438,0,0,0,1.4-1.953,6.506,6.506,0,0,0,1.022-1.96,2.739,2.739,0,0,0-4.4-2.695,6.746,6.746,0,0,0-1.3,1.787,7.194,7.194,0,0,0-1.125,2.127,2.818,2.818,0,0,0,1.25,2.9c.643.458,1.256-.6.618-1.058" transform="translate(-352.726 -108.309)" fill="#242b21"/>
    <path id="Path_864" data-name="Path 864" d="M384.414,30.809a5.138,5.138,0,0,1-5.178-.4c-1.281-.861-2.149-1.678-3.777-1.714-.834-.019-1.67,0-2.5,0a10.412,10.412,0,0,0-2.36.092c-1.381.329-2.531,1.568-3.585,2.446a36.892,36.892,0,0,0-4.217,3.671c-.563.637-1.334,1.649-.724,2.5A3.714,3.714,0,0,0,365.1,38.47a10.231,10.231,0,0,0,5.543-2.343l-.742.1,9.782,6.091,5.939,3.7c.532.331,1.078.647,1.6,1,1.157.775,1.174,2.8-.53,2.9-1.025.06-2.292-1.085-3.1-1.591L380.9,46.65c-.671-.417-1.287.642-.618,1.058l2.687,1.672a13.014,13.014,0,0,0,2.8,1.639,2.772,2.772,0,0,0,3.546-2.478,2.9,2.9,0,0,0-1.521-2.616c-4.192-2.693-8.463-5.27-12.692-7.9l-4.587-2.857a.633.633,0,0,0-.742.1c.222-.173-.174.123-.248.175-.268.187-.543.363-.824.529a9.54,9.54,0,0,1-2.741,1.154,4.517,4.517,0,0,1-1.548.109c-.319-.04-1.27-.241-1.338-.562-.08-.371.75-1.088.978-1.318a24.384,24.384,0,0,1,1.845-1.637c1.155-.948,2.3-1.919,3.468-2.846a3.716,3.716,0,0,1,2.484-.943h2.369a8.621,8.621,0,0,1,2.076.086,7.185,7.185,0,0,1,2.172,1.363,6.981,6.981,0,0,0,1.994,1,6.3,6.3,0,0,0,4.27-.377c.718-.3.4-1.483-.326-1.181" transform="translate(-343.57 -24.453)" fill="#242b21"/>
    <path id="Path_865" data-name="Path 865" d="M436.672,115.924c.675.42,1.359.828,2.026,1.261a2.232,2.232,0,0,1,.837.731,1.532,1.532,0,0,1-.954,2.232c-.925.227-1.9-.645-2.644-1.106l-1.725-1.074c-.671-.418-1.287.641-.618,1.058,1.8,1.121,4.488,3.582,6.515,1.638a2.77,2.77,0,0,0-.235-4.17c-.8-.613-1.727-1.094-2.583-1.627-.671-.418-1.287.641-.618,1.058" transform="translate(-400.441 -92.971)" fill="#242b21"/>
    <path id="Path_866" data-name="Path 866" d="M421.592,131.115c.522.325,1.063.631,1.571.978a1.537,1.537,0,0,1-.326,2.834c-1.17.268-2.739-1.165-3.7-1.766-.671-.418-1.287.641-.618,1.058,1.694,1.055,3.961,3.036,5.85,1.223a2.772,2.772,0,0,0,.248-3.7,9.23,9.23,0,0,0-2.4-1.682c-.671-.418-1.287.641-.618,1.058" transform="translate(-388.44 -105.061)" fill="#242b21"/>
    <path id="Path_867" data-name="Path 867" d="M406.513,146.316c.341.212.714.4,1.034.643a1.521,1.521,0,0,1-.636,2.775c-.976.1-2.069-.885-2.858-1.376-.671-.418-1.287.641-.618,1.058,1.544.962,3.34,2.388,5.081.9a2.759,2.759,0,0,0,.645-3.339,4.943,4.943,0,0,0-2.03-1.716c-.671-.418-1.287.641-.618,1.057" transform="translate(-376.439 -117.158)" fill="#242b21"/>
    <path id="Path_868" data-name="Path 868" d="M341.425,29.831a6.377,6.377,0,0,0,4.109.222A6.742,6.742,0,0,0,347.514,29c.762-.565,1.558-1.749,2.6-1.145a.613.613,0,0,0,.618-1.058c-1.536-.891-2.515.1-3.688,1.028a5.161,5.161,0,0,1-5.293.822c-.745-.262-1.066.921-.326,1.181" transform="translate(-326.984 -22.681)" fill="#242b21"/>
    <path id="Path_869" data-name="Path 869" d="M489.237,91.021a4.357,4.357,0,0,0-2.932,3.327c-.138.771,1.042,1.1,1.181.326a3.144,3.144,0,0,1,2.077-2.472c.743-.25.424-1.434-.326-1.181" transform="translate(-442.612 -74.042)" fill="#242b21"/>
    <path id="Path_870" data-name="Path 870" d="M315.369,90.486a3.163,3.163,0,0,0-2.4-2.133c-.771-.138-1.1,1.042-.326,1.181a1.948,1.948,0,0,1,1.547,1.277c.25.743,1.434.424,1.181-.326" transform="translate(-304.058 -71.938)" fill="#242b21"/>
    <path id="Path_871" data-name="Path 871" d="M477.509,14.113l5.258-3.746-.838-.22L489.5,25.005l.22-.838-5.681,2.614.838.22-7.144-13.725c-.364-.7-1.422-.081-1.058.618l7.144,13.725a.627.627,0,0,0,.838.22l5.681-2.613a.622.622,0,0,0,.22-.838L482.987,9.529a.615.615,0,0,0-.838-.22l-5.258,3.746c-.637.454-.026,1.516.618,1.058" transform="translate(-434.893 -8.971)" fill="#242b21"/>
    <path id="Path_872" data-name="Path 872" d="M286.062,11.82,280.8,8.074a.616.616,0,0,0-.838.22L272.4,23.152a.62.62,0,0,0,.22.838L278.3,26.6a.624.624,0,0,0,.838-.22l7.144-13.725c.364-.7-.693-1.319-1.058-.618L278.08,25.765l.838-.22-5.681-2.613.22.838,7.567-14.858-.838.22,5.258,3.746c.643.458,1.256-.6.618-1.058" transform="translate(-272.324 -7.988)" fill="#242b21"/>
  </g>
</svg>
