<svg id="Group_2206" data-name="Group 2206" xmlns="http://www.w3.org/2000/svg" width="38.841" height="37.085" viewBox="0 0 38.841 37.085">
  <path id="Path_826" data-name="Path 826" d="M36.257,2.142a6.938,6.938,0,0,0,3.151,2.252c1.269.305,2.661-.145,3.878.395,1.8.8,1.865,2.517,1.883,4.2a4.957,4.957,0,0,0,1.57,3.631A8.582,8.582,0,0,1,48,13.993a3.2,3.2,0,0,1,0,3.361c-.7,1.124-1.9,1.748-2.454,3-.577,1.312-.157,2.627-.441,3.967-.411,1.94-2.128,2.5-3.871,2.5a5.242,5.242,0,0,0-3.93,1.338c-1.183,1.114-2.246,2.342-4.078,1.868-1.406-.364-2.086-1.727-3.238-2.485-1.241-.817-2.526-.661-3.92-.721a3.251,3.251,0,0,1-3.2-3.41c-.015-1.533-.013-2.95-1.083-4.19-.931-1.078-2.149-1.831-2.221-3.415-.078-1.728,1.23-2.542,2.221-3.691,1.144-1.326,1.021-2.786,1.083-4.4a3.255,3.255,0,0,1,1.419-2.673,4.239,4.239,0,0,1,2.522-.525,5.3,5.3,0,0,0,4.106-1.514,7.235,7.235,0,0,1,1.673-1.453,3.223,3.223,0,0,1,3.673.587c.578.535,1.446-.329.866-.866A4.465,4.465,0,0,0,31.718.638c-1.507.936-2.15,2.557-4.14,2.659-1.493.076-2.83-.1-4.13.845A4.9,4.9,0,0,0,21.64,8.462a4.383,4.383,0,0,1-.472,2.436,9.172,9.172,0,0,1-1.378,1.5,4.513,4.513,0,0,0-1.132,4.927c.612,1.513,2.3,2.245,2.818,3.782.491,1.466-.1,3,.6,4.455a4.528,4.528,0,0,0,4.2,2.49,9.242,9.242,0,0,1,2.027.083,4.544,4.544,0,0,1,2.131,1.459,4.8,4.8,0,0,0,4.436,1.681c1.634-.318,2.382-1.522,3.568-2.5,1.439-1.184,3.193-.411,4.82-.906a4.479,4.479,0,0,0,3.138-4.211c.058-1.572-.066-2.774,1.155-4.012,1.164-1.181,2.21-2.319,2.15-4.11-.068-2.014-1.435-2.888-2.58-4.281-1.245-1.513-.357-3.522-1.055-5.222A4.632,4.632,0,0,0,41.42,3.3a4.31,4.31,0,0,1-2.984-.725c-.471-.388-.882-.865-1.313-1.3a.613.613,0,0,0-.866.866" transform="translate(-14.597 0)" fill="#242b21"/>
  <path id="Path_827" data-name="Path 827" d="M12.449,117.821l-4.227,6.341,1.119.146-1.986-6.077a.629.629,0,0,0-.591-.45l-6.146.044.529.922,4.876-7.3c.439-.657-.621-1.271-1.058-.618l-4.876,7.3a.617.617,0,0,0,.529.922l6.146-.044-.591-.45,1.986,6.077a.621.621,0,0,0,1.119.146l4.228-6.341c.439-.658-.622-1.272-1.058-.618" transform="translate(0 -87.985)" fill="#242b21"/>
  <path id="Path_828" data-name="Path 828" d="M123.687,118.439l4.227,6.341a.621.621,0,0,0,1.12-.146l1.986-6.076-.59.45,6.145.044a.617.617,0,0,0,.529-.922l-4.876-7.3c-.436-.652-1.5-.04-1.057.618l4.876,7.3.529-.922-6.145-.044a.627.627,0,0,0-.591.45l-1.986,6.076,1.119-.146-4.227-6.341c-.435-.653-1.5-.04-1.058.618" transform="translate(-98.354 -87.986)" fill="#242b21"/>
  <path id="Path_829" data-name="Path 829" d="M67.335,40.965a7.965,7.965,0,1,1-6.467-7.826,8.055,8.055,0,0,1,6.467,7.826.613.613,0,0,0,1.225,0,9.191,9.191,0,1,0-7.366,9.008,9.322,9.322,0,0,0,7.366-9.008.613.613,0,0,0-1.225,0" transform="translate(-39.949 -25.291)" fill="#242b21"/>
</svg>
