<svg id="Group_2223" data-name="Group 2223" xmlns="http://www.w3.org/2000/svg" xmlns:xlink="http://www.w3.org/1999/xlink" width="72.385" height="40.026" viewBox="0 0 72.385 40.026">
  <defs>
    <clipPath id="clip-path">
      <rect id="Rectangle_1005" data-name="Rectangle 1005" width="72.385" height="40.026" fill="#242b21"/>
    </clipPath>
  </defs>
  <g id="Group_2222" data-name="Group 2222" transform="translate(0 0)" clip-path="url(#clip-path)">
    <path id="Path_878" data-name="Path 878" d="M23.688,16.393l1.487-5.242L19.154,4.4l-3.822,8.828,3.412,4.187.1.152a4.472,4.472,0,1,1-8.469,2.407V19.9l.04-5.208L2.48,11.106,14.8,34.313l-.09.432c-.657.258-.741.657-.988.921L.073,9.956A.809.809,0,0,1,1.066,8.85l10.428,4.568a.789.789,0,0,1,.494.735l-.039,5.7a2.889,2.889,0,0,0,3.665,2.458,2.886,2.886,0,0,0,1.846-3.973l-3.653-4.49a.837.837,0,0,1-.112-.808l4.5-10.4.017-.028A.782.782,0,0,1,19.49,2.4l.017.023,7.139,8a.808.808,0,0,1,.168.741l-1.6,5.651a3.816,3.816,0,0,0,.236,2.312,3.756,3.756,0,0,0,3.895,2.217,3.763,3.763,0,0,0,2.924-5.393l-2.716-5.214a.8.8,0,0,1,.034-.786L35.519.387l.028-.045a.779.779,0,0,1,1.291,0l.028.045L42.8,9.95a.8.8,0,0,1,.034.786L40.121,15.95a3.764,3.764,0,0,0,5.242,4.927,3.768,3.768,0,0,0,1.813-4.063l-1.6-5.651a.809.809,0,0,1,.168-.741l7.139-8,.017-.023a.782.782,0,0,1,1.28.208l.017.028,4.5,10.4a.849.849,0,0,1-.107.808l-3.659,4.49a2.891,2.891,0,0,0-.236,1.56,2.907,2.907,0,0,0,2.082,2.413,2.892,2.892,0,0,0,3.665-2.458l-.039-5.7a.789.789,0,0,1,.494-.735L71.324,8.85a.808.808,0,0,1,.988,1.106L58.658,35.665a2.064,2.064,0,0,0-.988-.792l.067-.853L69.9,11.106l-7.93,3.581.039,5.208v.078a4.507,4.507,0,0,1-.982,2.38A4.455,4.455,0,0,1,58.9,23.8a4.473,4.473,0,0,1-5.36-6.235l.1-.152,3.412-4.187L53.231,4.4l-6.022,6.751L48.7,16.393l.011.039a5.343,5.343,0,1,1-10-1.2l.011-.017L41.226,10.4,36.192,2.3l-5.034,8.1,2.514,4.815.006.017a5.343,5.343,0,1,1-10,1.2Z" transform="translate(0 0)" fill="#242b21"/>
    <path id="Path_879" data-name="Path 879" d="M60.707,83.158a81.963,81.963,0,0,1,15.72,1.347c4.372.9,7.077,2.3,7.077,3.973s-2.7,3.075-7.077,3.974A81.541,81.541,0,0,1,60.707,93.8a81.538,81.538,0,0,1-15.72-1.347c-4.372-.9-7.077-2.3-7.077-3.974s2.705-3.075,7.077-3.973a81.96,81.96,0,0,1,15.72-1.347m15.405,2.89a80.443,80.443,0,0,0-15.405-1.307A80.44,80.44,0,0,0,45.3,86.048c-3.586.741-5.809,1.611-5.809,2.43s2.222,1.689,5.809,2.43a80.44,80.44,0,0,0,15.405,1.307,80.443,80.443,0,0,0,15.405-1.307c3.586-.741,5.809-1.6,5.809-2.43s-2.222-1.689-5.809-2.43" transform="translate(-24.514 -53.773)" fill="#242b21"/>
  </g>
</svg>
